<?xml version="1.0"?><svg version="1.2" baseProfile="tiny-ps" viewBox="0 0 300 300" xmlns="http://www.w3.org/2000/svg" xmlns:xlink="http://www.w3.org/1999/xlink"><title>omrani-po-meri</title><g><g fill="#e9e9e9" transform="matrix(.1 0 0 -.1 0 300)"><path d="M0 1500V0h3000v3000H0V1500z"/></g><g fill="#e7e7e5" transform="matrix(.1 0 0 -.1 0 300)"><path d="M20 2989v-10l10 6 10 6v-22l-19 6-19 6-1-56v-56l21 7 21 6-6-16-6-16h17l-5-20-5-20h24c14 0 27-2 30-5 5-5-5-74-17-112l-7-23h42v-50h30v-70h69l6 10c3 6 15 10 26 10h19v50h50v30h-50v20h60l20 17c24 21 26 33 5 33-8 0-15 5-15 10 0 6 6 10 13 10s19 9 27 20c15 21 40 27 40 10 0-5 4-10 8-10h9l1 40 2 40h-50v40h21l-7-12-7-11 12 7 12 8 12-10 12-10 32 5 33 5-6 9-5 9h25l-12 12-13 13-7-11c-4-6-17-13-29-16l-23-6v51l-35-6-35-6v17l-32-1-33-2v-10c0-5 9-11 20-13 23-5 45-21 45-33v-9h-68l-6 15-5 15h-41v10c0 6-7 10-15 10h-15v-50h-70v-22l-15 12-15 13 11 13 11 14 10-6c6-4 2 5-7 20-19 29-35 34-35 11v-15h33l-16-18-17-18 12-12 12-12h-12c-12 0-16 12-13 43l2 17H72l-4-25-5-24 11-4 11-4-8-9-8-8-9 13c-4 8-6 26-5 40 2 14 2 20-1 13l-6-12-9 6c-5 3-9 13-9 23v19l20 5c20 5 28 27 10 27-5 0-10 5-10 11v10l10-6 10-6v31H20v-11zm300-224v-15h-60v30h60v-15zm-70-36v-11l-15 6-15 5 6-24 6-25h-11c-16 0-51 32-51 47v13h80v-11zM99 2983l-11-12 7-11c3-6 10-8 15-5s11 2 14-3l5-9 31 5 30 4v29l-20-6-20-6v10c0 5 8 11 18 14 9 2 0 4-21 3h-38l-10-13zm21-8c-7-9-15-13-17-11-7 7 7 26 19 26h10l-12-15zm119 6-1-16-5 13c-5 14-33 17-33 3 0-5 11-12 25-15l26-7 11 7c6 4 27 7 47 6l35-2 8 13 8 12v-25h80v27H240l-1-16zm258 3c6-16 33-19 33-3v10l13-7 12-7-7 8c-5 5-19 9-32 11l-25 3 6-15zm78 5c-11-16-1-19 13-3l13 14h-10c-5 0-13-5-16-11zm53 4c6-3 12-11 12-18v-14l-57-3-58-4 42-8c24-5 41-11 39-15-2-3 39-6 92-6h97l3 18 3 17-13 1c-7 1-31 2-53 3l-40 1 1 18 2 18-15-12-14-12 13-8 13-9h-47l4 18 5 18-21 1-21 1 13-5zm2132-1c0-4 4-12 9-17 5-6 11-28 13-50l3-40 16-3 16-3-3 47c-1 25 0 43 3 40s15 0 26 5l20 11-12 7c-7 4-30 8-51 9l-40 2v-8zm145-3c-4-6-5-12-2-15 2-3 7 2 10 11 7 17 1 20-8 4zm-2442-21-23-11v-29l20 5 19 5 4-12 5-11 8 19 8 20-12 4-12 4 6 9c6 11 5 11-23-3zm447 3v-10l-17 3c-10 2-28 0-41-5l-23-9 6-10 6-10h-21v-50h70l1 13c1 6 1 20 0 30l-2 17h29c16 0 32 3 35 7l7 6-11 14c-13 15-39 18-39 4zm840-4v-17h35l-10 8c-5 4-13 11-17 16l-8 9v-16zm650 3c0-16 37-30 79-30 22 0 51-4 65-10l25-9 6 10 6 9 10-5c5-4 16-2 25 3l17 9-13 8-13 8-94-1-93-1v10c0 5-4 9-10 9-5 0-10-4-10-10zm-1407-7c-7-2-13-11-13-18v-14l30 1 30 1v12c0 10-25 28-33 24-1 0-8-3-14-6zm92-2-5-10 9-5c5-3 17-3 26 0l17 7-14 8c-17 11-26 11-33 0zm68 2c-7-3-13-11-13-19v-14h60v28l-17 4c-10 3-24 3-30 1zm192-3c-8-13-1-24 14-19l10 4-8 14-8 13-8-12zm95 0-15-9 12-12c15-15 26-7 21 15l-3 15-15-9zm182 1c-18-3-33-10-34-15-2-14 26-46 39-46h13v-40h82l-5 13-4 12-21-3c-30-4-28 6 3 18l25 10v19c0 11-5 23-11 27l-11 6-11-11-10-10-11 12-11 13-33-5zm491-5-6-9 17-12 16-12 43 8c23 5 56 13 72 18l30 9-20 2c-11 1-49 2-83 3l-64 2-5-9zm190 7c-7-3-13-11-13-19v-14h14c8 0 16 7 19 15l6 14-7 4c-4 3-13 2-19 0zm617-1c0-5-10-14-22-20l-23-11h13l12-1v-70l-17 2c-10 1-30 0-45 0l-28-2v-14c0-8 6-17 13-19l12-5-19-1-18-1 6-15 5-15h-8c-5 0-14 7-21 15l-12 15h-45l-18-20c-10-11-21-17-26-15-4 3-10 1-13-4l-6-10 8-5 9-6-5-25-4-25h49l13 25 13 25h18c9 0 20-6 22-12l5-13 1 18c1 21 21 23 21 2 0-23-4-30-17-29l-13 2 6-9c3-5 16-8 31-7l25 3-4 47-5 48h24c25 0 43 13 56 40 4 8 14 25 21 37l13 23 6-7 7-6v24c0 24-16 49-32 49-4 0-8-4-8-8zm-1532-9c7-3 16-2 19 1 4 3-2 6-13 5l-19-1 13-5zm462-3v-10h60v20h-60v-10zm87 3c-3-5-1-17 3-27l7-20 6 17c4 10 17 22 29 27l23 9h-32c-17 1-34-2-36-6zm81 0c7-3 16-2 19 1 4 3-2 6-13 5l-19-1 13-5zm668-2-6-9 14-5c15-6 26 1 26 15 0 11-27 10-34-1zm-2521-41c-8-26-1-35 20-26l16 6-3 17c-2 9-8 18-15 20l-11 4-7-21zm402 13-7-6 13-15 12-16-12 8-13 7v-22l23 3 22 3-1-41-1-41 19 5 19 5 14-19 14-19 6 18 7 17h29l-3 28-3 27-22-2-22-3 5 14 5 13-32 7c-18 3-40 13-49 21l-17 15-6-7zm630-17-27-23v-53h47l6 48c3 26 4 48 3 49s-14-8-29-21zm1186 17c-7-2-13-9-13-15v-9l20 3c12 2 21 7 21 13 1 12-11 15-28 8zm-73-14v-10l-10 6-10 6v-26l-9 14-10 15-25-12-26-12v-14c0-8 5-18 10-21l10-6 6 14c5 14 11 15 69 18l30 2-17 4-17 4 6 15c3 8 2 14-1 14s-6-5-6-11zm-1317-16-20-13 4-55 4-55h-22l6 20 6 20-16 6-17 7-29-32c-16-18-29-38-28-44l1-12 5 13c7 17 23 15 23-3 0-8-4-15-10-15-5 0-10-7-10-15v-15h-30v-72l-32 4-33 3v-58l13-4 12-5v32h91l15 14c8 8 14 24 14 35v21h10c6 0 15 10 20 23l9 22v-12l1-13h30v60h-27c-38 0-50-10-56-45l-5-30 2 40 1 40 32 3 32 3 4 37 4 37 1-37 2-38h14c8 0 24 12 35 26l20 25 13-2c7-1 21-1 31 0l18 1-3 18-3 17-33-3-32-4v16c0 8 5 18 10 21 19 12 10 23-24 27l-34 4-19-13zm1100 2-5-16 7-7 7-7 13 18 13 18 7-18c5-10 7-23 6-30-1-6 2-14 7-17l8-5v58l-8-5-8-5v31h-41l-6-15zm745 8c7-3 16-2 19 1 4 3-2 6-13 5l-19-1 13-5zm-390-24-27-20 6-14 5-15h18c11 0 22-4 25-10l6-10h59v10c0 6-11 15-25 20-28 11-32 25-10 34 8 3 15 11 14 18l-1 13-5-12c-6-15-30-17-35-4l-3 10-27-20zm32-29c0-5-2-10-4-10-3 0-8 5-11 10l-6 10h10c6 0 11-4 11-10zm-1370 25c0-8 5-15 10-15 6 0 10 7 10 15s-4 15-10 15c-5 0-10-7-10-15zm31-1 1-19 5 13c3 7 2 16-1 19-3 4-6-2-5-13zm155 9c-11-11-6-23 9-23 8 0 15 4 15 9 0 13-16 22-24 14zm484-8c0-8 5-15 10-15 6 0 10-7 10-15v-15h30v60h-50v-15zm937 8c-4-3-7-10-7-15v-8h60v9c0 16-41 27-53 14zm-1470-10c-4-3-7-19-7-35v-28h26l-4 35c-4 37-5 39-15 28zm83-3c0-5 5-10 10-10h10v-50h43l13-17 13-18 7 19 7 18-11 7-11 6 2 20 2 20h-30l3-15 2-15-19 23c-20 23-41 29-41 12zm770-19c0-10 19-25 25-20 1 2-3 10-11 17l-14 13v-10zm-1549-17-14-16 14-9 14-8-20-15-20-15 18-6 17-7v-48h50v38l-12 5-13 5 28 1 27 1v30h-50v15c0 8-4 15-10 15h-9l5 15 6 15h-8c-5-1-15-8-23-16zm1839-9v-15h39l-5 15c-4 8-12 15-20 15h-14v-15zm-942-17c-5-14 15-38 31-38 6 0 11 5 11 11v10l-9-5-9-6 5 20 5 20h-15c-8 0-17-6-19-12zm102 3c0-5-3-16-6-25l-6-16h32v50h-10c-5 0-10-4-10-9zm-270-11c0-6 7-13 15-16 8-4 13-9 11-13-6-8 11-38 17-31 2 3 7 20 10 38l7 32h-60v-10zm1335 1-5-10 10-6 10-6 10 6 10 6-5 10c-4 5-10 9-15 9s-11-4-15-9zM63 2782l-22-17 8-14 8-13 16 31c8 17 15 31 14 31s-12-8-24-18zm640 11 17-4v-39h-40v-32l-27 6c-16 3-22 3-15 0 6-3 12-12 12-20v-14h15c8 0 15-4 15-10 0-5 7-10 15-10s15 5 15 10v10h89l3 18c2 9 2 27 0 40l-4 22h-13c-7 0-26 7-41 15-16 8-36 14-44 14l-15-1 18-5zm1822-3c-8-14 3-30 21-30h14v14c0 8-7 16-15 19l-14 6-6-9zm-1150-11c-4-6-5-12-2-15 2-3 7 2 10 11 7 17 1 20-8 4zm732 4c-4-3-7-11-7-17v-10l12 12c6 6 9 14 7 17-3 3-9 2-12-2zm50 1c-10-10-9-44 2-44 5 0 12 8 15 17l7 16-9 9-8 8-7-6zm200-24-17-20h20c10 0 22 5 26 11l6 11-9 9-9 9-17-20zm558 10-6-10h10c6 0 11 5 11 10 0 6-2 10-4 10-3 0-8-4-11-10zm-2469-7c-11-11-6-23 9-23 8 0 15 4 15 9 0 13-16 22-24 14zm1271-5-27-10 7-11 7-12-16 13-16 13-5-8c-3-5-2-15 2-21l8-13 31 18c18 10 34 24 37 31 2 6 3 12 2 11-1 0-14-5-30-11zm243-23c-7-14-19-25-26-25-6 0-19-12-29-26l-17-26 10-10 10-10 11 6c6 4 11 16 11 27v19h10c6 0 10-7 10-16v-15l10 6 9 6-5 12-5 13 20 23 21 24-6 8c-9 15-20 10-34-16zm592 9c-28-19-28-30-1-37 12-3 18-3 15 0s-1 14 5 25c14 26 7 31-19 12zm-1717-4-6-10h10c5 0 13 5 16 10l6 10h-10c-5 0-13-4-16-10zm237-3-11-13 5-21 6-22-34-3-33-3v-29l25-7c14-4 19-7 13-8l-13-1v-30h71l15 14c8 8 14 24 14 35v21h20v50l-37 1h-38l23 9c12 5 22 12 22 15 0 11-38 5-48-8zm208 3c0-5-5-10-11-10-12 0-38-29-39-43v-8l20 11c11 6 24 9 29 6l8-5 1 29c0 17-1 30-4 30-2 0-4-4-4-10zm-900-20c0-5 5-10 10-10 6 0 10 5 10 10 0 6-4 10-10 10-5 0-10-4-10-10zm1082-2c3-7 12-14 21-16l17-3v22l-10-6-10-6v10c0 6-5 11-11 11h-11l4-12zm623 4c-16-2-34-8-39-12l-9-9 13-16c7-8 19-15 27-15 19 0 45 27 41 43l-3 12-30-3zm179-8c3-9 6-23 6-31v-15l15 12c20 16 19 36-1 44-24 9-27 8-20-10zm-633-10 1-19 5 13c3 7 2 16-1 19-3 4-6-2-5-13zm1315 7c-4-7-5-15-2-18 9-9 19 4 14 18l-4 13-8-13zm-2476-26v-15h30v30h-30v-15zm840 6c0-5-10-11-22-13l-23-3-3-24-4-24 14-8c7-5 25-9 41-9h27v15c0 8 5 15 10 15 15 0 12 29-4 46-16 16-36 19-36 5zm280-6v-15h30v30h-30v-15zm1038 8c7-3 16-2 19 1 4 3-2 6-13 5l-19-1 13-5zM32 2678c-7-7-12-20-12-30s-4-18-9-18H1l2-20c2-24 0-24 24-2l20 17 5 33c5 34 0 40-20 20zm1384-4-6-17 15 13c17 14 19 20 6 20-5 0-12-7-15-16zm894 6c0-5 5-10 10-10 6 0 10 5 10 10 0 6-4 10-10 10-5 0-10-4-10-10zm115 0-6-10h10c5 0 13 5 16 10l6 10h-10c-5 0-13-4-16-10zm-270-10-7-12 10-10 10-10 18 4 19 3v30l-22 3-21 3-7-11zm210 0c-7-12 2-30 16-30h9v40h-9c-6 0-13-4-16-10zm263 3c7-3 16-2 19 1 4 3-2 6-13 5l-19-1 13-5zm308-16c3-10 9-15 12-12s0 11-7 18l-12 12 7-18zm-1449-3c-7-8 17-34 32-34 17 0 13 27-5 34-19 7-19 7-27 0zm1403-5v-10l10 6c6 3 10 8 10 11 0 2-4 4-10 4-5 0-10-5-10-11zM60 2636c0-9 5-16 10-16 6 0 10 4 10 9 0 6-4 13-10 16l-10 6v-15zm303-1c-7-8-13-25-13-38v-25l23-6 22-6-15-9-14-10 6-7 7-6 25 27c31 33 33 56 8 78-22 20-33 21-49 2zm317 0v-15h30v30h-30v-15zm490 0v-15h30v30h-30v-15zm470 0v-15h50v30h-50v-15zm455-5-6-10h10c6 0 11 5 11 10 0 6-2 10-4 10-3 0-8-4-11-10zm175 0c0-5 5-10 10-10 6 0 10 5 10 10 0 6-4 10-10 10-5 0-10-4-10-10zm260 0c0-5 5-10 11-10h10l-6 10c-3 6-8 10-11 10-2 0-4-4-4-10zm165 0c3-5 8-10 11-10 2 0 4 5 4 10 0 6-5 10-11 10h-10l6-10zm-2115-15v-15h30v30h-30v-15zm1186-1c-9-8-16-21-16-27v-12l10 15 10 15v-10l1-10 12 16c7 9 21 19 32 22l20 5-27 1-27 1-15-16zm82-30 4-34h28v15c0 8-4 15-10 15-5 0-10 6-10 14s-4 17-8 20l-8 5 4-35zm-373 16c-7-12 2-30 16-30h9v40h-9c-6 0-13-4-16-10zm1188-7c-4-10-13-22-20-28l-13-10 8-13 8-12 14 25c7 14 17 25 22 25 4 0 8 7 8 15 0 21-19 19-27-2zm-2193-2c0-5 5-13 10-16l10-6v10c0 5-4 13-10 16l-10 6v-10zm70-11c0-5 5-10 11-10h10l-6 10c-3 6-8 10-11 10-2 0-4-4-4-10zm333 3c-7-2-13-11-13-19v-14h28l5 20c5 20 2 22-20 13zm287-2c0-5-16-15-35-22l-36-13 6-14c3-7 5-18 5-23s7-9 15-9h15v52l16-6 15-6-6 10-6 10 15 6c18 7 22 24 6 24-5 0-10-4-10-9zm160 1c0-4 10-13 23-21l22-14-12 15-13 15 7 6 6 7h-16c-9 0-17-3-17-8zm620-12v-20h-20v-17l1-18 13 18c7 9 18 17 25 17 13 0 13 2 5 24-9 23-24 20-24-4zm283 8-23-11v-37l24 15c13 9 27 23 30 31l5 14-7-1c-4 0-17-5-29-11zm257-3c0-8 2-15 4-15s6 7 10 15l5 15h-9c-6 0-10-7-10-15zm-1397-5-23-9 7-18 7-18 4 18 3 17h15c8 0 14 5 14 10 0 6-1 10-2 9-2 0-13-4-25-9zm1634 4c-9-10 2-24 19-24h14v30h-13c-8 0-17-3-20-6zM10 2560c0-5 5-10 11-10h10l-6 10c-3 6-8 10-11 10-2 0-4-4-4-10zm621-6-13-16 10-21 11-22v23l1 24 20 5c11 3 20 9 20 14 0 15-34 9-49-7zm274 6c3-5 8-10 11-10 2 0 4 5 4 10 0 6-5 10-11 10h-10l6-10zm656-6 1-19 5 13c3 7 2 16-1 19-3 4-6-2-5-13zm438 14c0-2-2-16-5-33l-3-30 9 23 10 23 10-6 10-6v31h-15c-8 0-15-1-16-2zm673-18-12-20h9c9 0 24 30 18 36-1 2-8-6-15-16zm163 10-6-10h10c6 0 11 5 11 10 0 6-2 10-4 10-3 0-8-4-11-10zm-2389-13-19-14 18-7c22-8 28-3 23 19l-3 16-19-14zm1910-3c-9-22-2-27 24-19l21 7-4 11c-2 7-11 13-19 15l-15 3-7-17zm444 6-15-9 12-12 12-12 7 17c8 22 2 27-16 16zm-1994-16-6-17 15 13c17 14 19 20 6 20-5 0-12-7-15-16zm464 6-15-10h12c6 0 15 5 18 10 8 12 4 12-15 0zm1192-1c2-6 8-10 13-10s11 4 13 10l4 11h-34l4-11zm-1920-19c14-21 28-27 28-10 0 6-5 10-11 10h-10l6 10 6 10h-31l12-20zm294 12c-2-4-1-14 5-22l9-15v23c0 23-5 28-14 14zm1290-9-7-16 10-10 9-9 12 7 12 8-13 8-14 9h13c6 0 12 5 12 10 0 6-6 10-14 10h-14l-6-17zm440 1c-9-8-16-20-16-25v-10l-10 6c-5 3-10 4-10 1 0-2-3-11-6-20l-6-16 27 14c33 17 66 52 58 60-10 10-21 7-37-10zm-2444-6c2-6 10-14 16-16l12-4v10c0 5-7 13-16 16l-16 6 4-12zm288-4v-15l10 6 10 6-5 10c-9 14-15 11-15-7zm840-4v-9l15 5c8 4 15 8 15 10s-7 4-15 4-15-4-15-10zm635 0-6-10h10c6 0 11 5 11 10 0 6-2 10-4 10-3 0-8-4-11-10zm125-1v-10l10 6c6 3 10 8 10 11 0 2-4 4-10 4-5 0-10-5-10-11zm755 1c3-5 8-10 11-10 2 0 4 5 4 10 0 6-5 10-11 10h-10l6-10zm55-1v-10l10 6c6 3 10 8 10 11 0 2-4 4-10 4-5 0-10-5-10-11zm-1365-20c-10-30-2-32 12-3l11 24h-8c-5 0-12-9-15-21zm473 14c7-3 16-2 19 1 4 3-2 6-13 5l-19-1 13-5zm502-2v-11h-90v-70h-10c-5 0-10-7-10-15v-15h70v10c0 6 7 10 15 10s15 4 15 9 10 11 23 13l22 3v70l-17 3-18 3v-10zm212-3 5-13 26-3 27-3v31h-62l4-12zm-2282-11v-14h27v27h-27v-13zm-320-8v-10l-20 6-20 6v-67l12-12 12-12h66v28c0 15-3 37-6 50l-6 22H40v-11zm436-10-20-19 11-11 11-11 21 14 21 13v35l-12-1c-7 0-22-9-32-20zm414 12c0-5-10-11-22-13l-23-3-3-37-3-38h51v10c0 6 5 10 11 10s17 6 25 14l14 15v51h-50v-9zm1310-1v-10h-57l-23-25-23-24 19-6c10-4 26-10 34-14l15-8 33 5 32 4v14c0 8 5 14 10 14h10v60h-50v-10zm400-10v-19l-29 5-30 6 6-21 5-21h-22v-15c0-8 5-15 10-15 6 0 10-6 10-14s5-16 11-18l12-4-12-21c-15-29-14-43 4-43h15v32l14-5 14-6-6 22c-2 12-10 28-15 35l-11 14 15 9 14 9-15 10-15 9 38-6 37-6v17c0 9-4 16-10 16h-10v50h-30v-20zm-1813 3c-10-9-9-23 2-23 5 0 11 7 15 15l5 15h-8c-4 0-11-3-14-7zm-131-10c-3-3-6-21-6-40v-33h30v34c0 34-11 52-24 39zm69-3c-7-12 2-30 16-30h9v40h-9c-6 0-13-4-16-10zm352 4c-4-4-7-20-7-36v-28h61l-3 33-3 32-20 3c-12 2-24 0-28-4zm283-9v-15h-32l5-20 5-20h-17l5-17 6-18-10 14-10 14-11-7-11-7v33l15-6 15-5v40l-17-3-18-3-3-23-3-22h-20c-10 0-19-4-19-9v-9l-20 5-19 5 4-38c2-22 2-31-1-21l-5 17h-59l-1-22-1-23-5 18-5 18-11-4-12-4-3-27-3-28-16 6c-8 3-17 6-19 6s-5 8-5 18l-2 17-8-35-8-35 2 43 3 42h-8c-5 0-8-7-8-15v-15h-29l3-40 3-40h-8c-5 0-9 7-9 15v15h-30l2-540 3-540h-15v462c0 208-2 389-6 403-9 34-20 31-28-7-8-40-28-88-37-88-4 0-9-6-12-14l-6-14 22 6 22 5-15-17-14-18 17-13c9-7 17-20 17-29v-16h-31l6-10 6-10h-32l6-10 6-10-15-6c-9-3-16-12-16-20v-14h14c8 0 17 7 20 16 4 9 9 15 12 12 2-3 0-16-6-29l-11-24-25-12-25-12-15 6-14 5v-40l-14-5c-8-3-24-3-35 0l-21 5v-32h-80v90h16c9 0 27 11 38 23l22 24 47 5 48 6-17-13-17-12 6-10 7-11-14-5-15-6-4 12-4 12-8-7-7-7 6-16 6-15 22 12c12 7 28 18 35 25l13 12v71h-15c-8 0-15-4-15-10v-10h-40v20H650v-20h-40v-15c0-8 5-15 10-15h10v-40h-40v10c0 15-20 12-38-7-17-16-19-21-21-55l-1-18h-10c-6 0-20 9-32 20l-22 20h25l-15 15c-8 8-23 15-33 16l-18 1 13 5c6 2 12 11 12 19v14h21c22 0 49 22 49 39v11h-80v-20h-37l-16-18c-20-22-22-38-4-45l12-5-22-1-23-1v-50h-21c-22 0-49-22-49-39 0-6-4-11-10-11h-10v50h-40v20h90v30h-27l-28 1 18 10c9 5 17 17 17 25 0 9 7 22 15 30l15 15v-23l1-23 8 15 9 15-5 28c-6 30-20 36-29 12l-6-16-14 18-14 18-14-17c-7-10-19-18-27-18-19-1-49-24-49-39v-11h70v-20H140v-78l13-5 12-5-27-1-28-1v-15c0-20-10-19-26 3l-13 17-1-28v-28l-17 2c-10 1-26 1-35 0l-18-1v-14c0-8 6-17 13-19l12-5-11-9-11-8-1-222v-223h18v-40H10c-5 0-10-7-10-15v-15h22l-6-25-6-25h40v15c0 8 5 15 10 15h10v18c0 10 5 23 11 29l11 11-7 12-7 11-17-6-16-6 13 12c6 7 12 23 12 36v23h30v190h20v70h20v-50h30v90h10c6 0 10 7 10 15v15h60v-30h-27l2-29 2-29-24-17-23-18v-86l11-6 11-7 19 21 19 20v41h40v-30h30v21c0 11 7 27 15 35 8 9 15 22 15 30v14h-15c-8 0-15 5-15 10v10h80v-20h-40v-70h20v-40h-10c-5 0-10-7-10-15v-15h-32l4-12c3-7 13-15 23-17s25-9 32-16l13-14-11-6-10-7 18-14c25-19 30-17 37 11l6 25h15c7 0 17-4 20-10 3-5 13-10 21-10h16l-5 13c-2 6-11 12-20 12-8 0-19 4-23 8l-7 7h33v27l-26 12-26 12-14-12-14-11v40l15 6 15 5v59l-15 6c-8 3-15 10-15 17v11l15-6 15-5v40l17 6c10 4 21 11 25 17l8 11v-12c0-7 5-13 10-13h10v80h-15c-8 0-15 5-15 10v10h50v20h94l-22-20-21-20h-61v-30h100v-10c0-5 7-10 15-10s15 5 15 10v10h40v50h20v-50h13l12-1-17-10c-10-5-18-15-18-21v-10l15 6 15 5v-79h-70l6 25 6 25h-30l-6-16c-8-21-8-26 2-20l8 5-4-32c-6-41-21-55-63-59l-34-3v-90l23-3 23-4 18 21 18 21h46c25 0 52 3 61 6l15 6-6 14-5 13 16 16 15 16-5 14-6 15h11c6 0 11-4 11-10 0-5 4-10 10-10h9l-6 16-6 15 22 6 21 5v50l15-12 15-13 20 18 20 18v-35l13 5 14 5-5-24c-2-13-8-24-13-24h-9l2-40c2-22 6-40 11-40 11 0 9-38-3-45-5-3-10-11-10-17v-10l13 5 14 5 23-64 22-64h32l-20 16c-10 8-13 13-7 9l13-6 18 10 18 10 14-9 13-8-31-32c-31-31-42-60-23-60 6 0 13 5 17 11l7 11 8-13 9-14v32l41-20 40-20 11 11 11 11-11 25-11 25 24-11c13-6 24-14 23-17 0-3 0-12 1-18l1-13h14c8 0 16 4 18 10l3 9 34-16 34-17-11-4c-7-2-12-8-12-14v-10l15 6 15 5-7-27c-3-15-12-32-19-39-15-15-44-17-44-3 0 6 7 10 15 10h14l-6 16-6 15-26-3-26-3-3-23-3-22-12-1c-7-1-22 0-34 1l-23 1v-53l-64 3c-36 2-67 1-71-3l-6-6-27 7-27 7-3 22-3 22h-35l-17-21-18-21-14 6-14 5-3-15-3-15-22 20-22 21-6-10c-10-16-22-12-28 10l-5 20h-63l5 9 6 9-16 6c-22 8-24 8-24-8v-15l-40 1c-46 0-45 1-54-29l-7-23h51l-15-24-16-24-19 5-20 5v-36l-15 20-14 19-1-17v-18h-15c-8 0-15 5-15 10 0 6-5 10-11 10h-10l6-10 6-10h-10c-6 0-11 6-11 14s-6 17-12 19l-13 5 13 1c6 1 12 6 12 12 0 15 31 44 49 44 8 0 16 6 19 13l4 12h-25c-14 0-32-3-41-6l-16-6v-38h-14c-8 0-17 6-20 13l-6 12-6-12-6-13H232l-5-12-5-13-1 13-1 12h-80v-40h-31l3-18 4-17 22 2 22 3v-30h30v50h32l-6-23c-3-12-6-25-6-29 0-5-11-8-25-8h-25V680h-20v-70h-11c-17 0-39-27-39-49v-21H40v-29l48 2 47 2 3 39 3 40 46 43 45 43 59-2 59-2v-46h50v50l43 1c23 1 45 1 50 0 4 0 7 3 7 9 0 5 7 10 15 10s14 3 13 8c-6 16 8 16 32-2l25-18-12-5-13-5v-48h11c6 0 17 7 26 15l15 16-6 14-5 15h37l-5-20-5-20h20l-2-17c0-10-5-23-11-29l-10-12-7 12-8 11-1-25c-1-14 0-35 1-47l1-23h-51V381l12-7 12-8 4 12c2 7 8 12 13 12h8l-6-17c-4-10-14-25-23-33l-16-15-2-47-2-48h46l-1-24c-1-14-7-32-15-41l-13-15 7-8 8-7 19 24 19 23v-22h37l-2 25-3 25h108v-40h-50v-30h61l23-25 23-25h69l13 12 14 13 4-12 5-13h79l-7-11-7-12 26 7 26 6 5-9c4-5 3-16 0-25l-6-16h-16c-8 0-23 6-31 14l-16 14-27-5c-16-3-28-9-28-14v-9H809l-16 15-15 16 11 13 11 14-20 5-20 5-13-12c-6-7-20-15-29-19l-18-6V30H515l14 9 13 9-10 6-11 7 6 14 5 15h-9c-4 0-14-9-21-20-7-12-16-19-21-16-7 5-28-15-45-42l-7-12 715 1 716 2v67h-20v41l22-21 22-20h66V40h-19c-11 0-22-4-26-9l-5-10 10-6 11-7 14 12 14 12 21-7c11-3 20-11 20-16V0h410v20h38l6 13 6 12 6-12 6-13h69l-6-10-6-10h111v25c0 28-5 30-40 12l-25-13-25 7-25 7 18 1 18 1-5 9-6 9 16 6c9 3 36 6 61 6h46l-6-7-7-6 11-13 10-12-12-8-12-7 8 13 8 13-11-7-11-7 6-14 5-15h204l22 20c12 11 28 20 37 20h15V0h15c8 0 15 5 15 10v10h40v168l-12 6-13 6 13 6 12 6v328h-48l-6-12-6-13-6 13c-3 6-14 12-24 12h-18l-6 15-5 15h-92l-5-15-6-15h-78v10c0 6 5 10 10 10h10v70h15c8 0 15 5 15 10 0 6 5 10 11 10 5 0 8-3 6-8-3-4 2-13 10-21l15-14-7 22-6 21h15c9 0 16-4 16-10 0-5 7-10 15-10h15v14c0 8-5 18-11 21l-10 7 18 14c10 7 26 14 36 14h17v50h40v14c0 8-6 17-12 19l-13 5 13 1 12 1v30h70v68l-18 4c-10 3-32 3-50 0l-32-4v-27l18-4 17-5-35-1-36-1-14 20-14 20h-126v-21l-65 3-65 3v7c0 5-7 8-15 8h-15v-25l-9 14-9 14-17-7-17-6-5 20c-3 11-9 20-14 20h-8l3-27c2-16 1-20-1-10l-4 17h-37l5 20 5 20h-40c-22 0-47 3-55 6l-15 5-13-30-14-31h-125v-52l-16 6c-9 3-18 6-20 6-3 0-3 4 0 9l6 9-34 36c-19 20-41 36-48 36h-13l11-8c6-4 13-15 17-24l6-18h-14c-8 0-15-4-15-10v-10h-50v32l-12-5c-7-2-12-10-10-16l2-12-10 6c-5 3-10 12-10 20v14l37 3 36 3 5 15 5 15-16-14-17-13v22h-100v19h-27c-16 0-37 2-47 3l-19 3-5-14-5-14 17 6 16 6v-21l23 5 22 6 15-9 15-10h-55v-43l-18-16c-11-9-21-23-24-31l-6-15-8 19-8 20 12 4c17 5 15 29-2 35-8 3-32 3-52 0l-37-6 22-19 23-18h-16c-9 0-16 5-16 10 0 6-7 10-15 10h-15v-17c0-10-8-27-16-38l-15-20 7 29 7 29-12-7-11-7v31h-30v28l-19-5-19-5-4 24-3 23-22 3c-13 2-23 8-23 13s-7 9-15 9h-15v-40h-10c-5 0-10-7-10-15v-15h-49l-4-17-5-18-1 23-1 22h-50v-49l18-4 17-5-18-1-19-1-5 20c-3 11-9 20-14 20s-9 8-9 18v17l10-15 10-15v25h80v8c0 5 11 14 24 20l24 11-5 20-5 21-44-4c-24-3-48-7-54-11l-10-6 5-10 6-9h-40l9 30 9 30-22 15-21 15h45l-7-12-7-11 17 6c10 4 29 7 42 7h24v38l20 5c10 3 19 2 18-2 0-3 0-10 1-16l1-10 8 12 7 11 103 6 103 6 13 13 13 12-5 14-5 14 63-5 63-4 5 18c2 10 8 18 12 18 5 0 15 3 23 6l16 6-6-21-5-21h22v30l30 7c16 3 30 9 30 14v9h29c16 0 36 3 45 6l16 6v23c0 13 5 27 11 30l10 7 18-21 18-21h44l-6-10-6-10h10c6 0 11-7 11-15v-15h30v30h-28l-5 20-5 20h38v90h-22l5-20 5-20-20 11-20 11 7-12 8-12-22 7-21 6v-15c0-9-4-16-10-16-5 0-10 7-10 15v14l-17-5-18-6 18 15 17 14v71l-15 6-15 6 6 25 6 25h-22l1 23v22l16-32 17-33h27l-5-9c-4-5-3-16 0-25l6-15 13 12 12 12-10 22-10 22 10 13c5 7 13 21 17 32l6 18-15-6-15-5v39h50v20h60v50h49l3 18c2 9 2 27 0 40l-4 22h-48v-20h-70v-15c0-8 5-15 10-15 6 0 10-4 10-10v-10h-21c-35 0-65-42-36-53l12-5-27-7-27-7-15 15c-8 8-12 17-9 21 4 3 1 6-5 6-7 0-12 5-12 11v10l12-7 11-7-7 11-6 11 10 6c5 3 10 15 10 26v19h-24l18 13 18 13-16 13c-18 15-22 41-6 41h10v58l-10 4-11 3v45c-1 25 0 54 1 65l2 20 5-12c2-7 11-13 19-13h14v70h-15c-8 0-15 5-15 10 0 6 5 10 10 10h10v40h-9c-5 0-12-6-14-12l-5-13-2 20c-1 11-1 32 0 48l2 27h-31l5 15 6 15 11-7 10-6-7 12-7 11-10-5c-11-8-11-3 1 29l10 26h-8c-5 0-14-6-21-12l-13-13 2 15c1 8 2 23 1 33l-1 17-32-1-33-1 18-5 17-4v-14c0-19-10-22-50-14l-35 6 23 2 22 1v9c0 5-6 12-12 14l-13 5 13 1 12 1v40h-9c-6 0-13-5-16-10l-6-10-11 6-11 7 17 9 16 9v18c0 10-7 24-15 31l-15 12-6-18c-3-11-11-30-17-42l-11-24-4 11-4 11h-48v30h-25l15 10 15 10h-14c-8 0-20-8-27-17l-13-18-1 18v17h-11c-6 0-17-7-25-15-9-8-24-15-35-15h-19v50h-15c-20 0-19-17 1-38l17-16-11-4-11-3 6-15 5-14h-11c-6 0-11 5-11 10v10h-45l15-10 15-10h-13c-7 0-15 7-19 16l-6 16-8-14-9-13v81l-12 12-12 12h27l-6 6-6 7-25-16-24-16-49 6-50 5v14c0 8 4 14 9 14 4 0 8 5 8 10v10h-38l-5 20c-3 11-10 20-16 20h-11v-15zm25-59 14-14-13-11-13-11-6 7c-8 8-9 43-1 43 3 0 12-6 19-14zm-22-53c-7-2-19-2-25 0l-13 5h50l-12-5zm172-33 6-10-33 7c-44 8-48 13-10 13h31l6-10zm219-5 5-15h-21l11-13 11-14-7-6c-3-4-11-7-17-7h-11l14 9 13 9-11 6c-13 8-15 46-2 46 5 0 11-7 15-15zm-56-30c-3-3-9 2-12 12l-7 18 12-12c7-7 10-15 7-18zm-548 11c0-2-7-7-16-10l-15-6 6 10c6 10 25 14 25 6zm129-33v-28l-9 20c-12 27-12 35 0 35h10l-1-27zm191-4c0-13-34-11-54 4l-18 13 36-4 36-4v-9zm-133-31-5-13-1 19c-1 11 2 17 5 13 3-3 4-12 1-19zm228 12 20-9h-22c-12-1-25 4-28 9l-6 10 8-1c4 0 17-4 28-9zm96-23c-1-12-15-9-19 4l-4 12 12-4c6-3 11-8 11-12zm-407-19c-1-13-3-25-3-27-2-6-31 21-31 29 0 5 8 11 18 13 9 3 17 5 18 6 0 0 0-9-2-21zm456 6c0-2-7-4-15-4s-15 4-15 10v9l15-5c8-4 15-8 15-10zm-360-19v-25h-20l4 23c6 28 5 27 11 27 3 0 5-11 5-25zm221 5h29v21l22-21 23-21-15-9c-22-14-39-12-56 5-9 8-20 15-26 15h-10l6-16 6-17-32 7c-38 8-42 11-35 30l6 14 20-5 21-5 1 13 1 14 5-12 5-13h29zm221-2c-7-7-12-18-12-25v-13h40v-10c0-5-15-13-32-19-18-5-47-14-65-19l-32-10 6 15 6 15-44-6-44-7 15 10 15 11h-12c-7 0-13 5-13 10v11l19-10 19-11 6 15c3 8 3 22 0 30l-6 15h22v-50h25c14 0 28 0 33-1 4 0 11 13 16 30l9 31h41l-12-12zm103-18 20-9h-22c-12-1-25 4-28 9l-6 10 8-1c4 0 17-4 28-9zm-852-37 7-6-11-14c-16-19-29-16-29 7v20h13c8 0 17-3 20-7zm74-9c-3-3-12-4-19-1l-13 5 19 1c11 1 17-2 13-5zm483-4c0-5-7-10-15-10s-15 5-15 10c0 6 7 10 15 10s15-4 15-10zm-340-15-12-14 7-11 6-10h-9c-5 0-15 6-21 14l-12 14 18 11c10 6 22 11 27 11h8l-12-15zm787-538c-1-100-2-18-2 183s1 283 2 182c2-100 2-264 0-365zm-921 503c8 0 14-4 14-10v-10h-38l-5-12-4-13-8 7-8 8 13 27 13 28 4-12c3-7 11-13 19-13zm229 10c-3-5-11-10-16-10h-10l6 10c3 6 11 10 16 10h10l-6-10zm515 6c0-2-9-6-20-9l-20-5 6 9c5 9 34 13 34 5zm70-38v-17l-15 5-15 6v-22h30v-40l-12 1c-7 0-22 4-33 9l-20 9h13l12 1v30h-22l-23 1 23 19 23 19 19-2 20-1v-18zm-337 5c-7-2-21-2-30 0l-18 5h60l-12-5zm177-3c0-5-2-10-4-10-3 0-8 5-11 10l-6 10h10c6 0 11-4 11-10zm-590-45v-25h-20v18c0 17 8 32 17 32 2 0 3-11 3-25zm-134-33c-12-2-25-8-31-12l-10-8-2 29-2 29 24-6 25-6 1 13c1 8 4 3 8-11l7-25-20-3zm213-72-8-15v55l1 55 8-40 8-40-9-15zm102 60c5 0 9 7 9 15 0 16 16 20 24 6l6-9-15-6-15-5v-31h-40v23c0 13 3 27 8 31l7 8 3-16c2-9 8-16 13-16zm86 14c-3-3-12-4-19-1l-13 5 19 1c11 1 17-2 13-5zm403-28c-6-6-10-22-10-37v-27l24-4c14-3 30-2 37 3l13 7-11 14c-5 7-13 21-16 31l-6 17h25l12-32 11-33-3-29-3-29-18-13-17-13 7-10 6-11h-22l6-11 7-10 14 5 15 6 6-16 5-15-16-18-16-18 6-17 7-18 7 13 8 12 14-14 15-13-28-28-27-28h-62v-30h40v-20h-40v-90h-10c-5 0-10 5-10 10 0 6-7 10-15 10h-15v-38l-16-6-15-6 6-20 6-20h-9c-13 0-29 50-25 72l4 16 25 6 24 6v15c0 8-2 15-4 15s-11 3-20 6l-16 6v-33l-10 6-10 6 1 42 1 42 11-27 11-28h66v130h-9c-5 0-11-5-13-12-2-6-12-12-21-14l-17-2 11 19 10 19-16 6-15 6 5 25c2 14 7 28 9 31 3 3 1 11-5 19l-11 13h16c16 0 21 11 10 23l-7 6-18-10-19-10v38l25-5 25-4v15c0 8-6 18-12 21l-13 6 13 6c6 3 12 12 12 20v15l-10-6-10-6 6 15 6 15 34 7 34 6v43l10-15 9-15-9-9zm-723 18c-3-3-12-4-19-1l-13 5 19 1c11 1 17-2 13-5zm437-3 6-9-12-5-13-5 15-1c8-1 21-5 29-10l14-9-17-17-17-17-15 6-15 6 3 35c2 34 11 44 22 26zm-384-92v-81l-14 5-14 6 5-22c3-12 10-32 16-45l11-23-11-7-12-8 9-14c6-8 10-32 10-52v-37l-11-7-11-7 7 23 7 23-11-7-11-7v41h-10c-5 0-10-4-10-10v-10h-52l6-16c3-9 6-27 6-40v-24h63l29-31 30-31-11-11-12-12-9 15-9 15-13-13c-6-6-22-12-35-12h-23v40h-35l1 92c1 51 3 114 5 141l3 47h44l6 26c4 15 5 28 3 30-7 7-37-7-37-17 0-5-4-9-10-9h-10v38l13 5c6 2 27 0 45-4l32-7v13c0 6-10 17-22 23l-23 11h18l17 1 12 25c6 14 13 25 15 25 1 0 3-36 3-81zm231 34-10-18v70l10-17 10-18-10-17zm256 5-5-13-1 19c-1 11 2 17 5 13 3-3 4-12 1-19zm-557-20v-10l-16 6c-9 3-18 6-20 6-3 0-3 4 1 10l6 9 14-6c8-3 15-10 15-15zm-45-7 5-10-10-6-10-6v15c0 18 6 21 15 7zm192-63-4-23v90l4-22c2-13 2-33 0-45zm178 42 20-9-15 1c-8 0-26 4-40 8l-25 8h20c11 0 29-3 40-8zm132 4c-3-3-12-4-19-1l-13 5 19 1c11 1 17-2 13-5zm88-4 6-10h-15c-9 0-16 5-16 10 0 6 4 10 9 10 6 0 13-4 16-10zm-398-92-5-13-1 19c-1 11 2 17 5 13 3-3 4-12 1-19zm318 12c-3-5-10-10-16-10-5 0-9 5-9 10 0 6 7 10 16 10h15l-6-10zm45-10c0-5-7-10-15-10s-15 5-15 10c0 6 7 10 15 10s15-4 15-10zm50-40v-30h-10c-5 0-10-7-10-15s-4-15-10-15h-9l5 15 6 15h-9c-5 0-14-5-19-10l-11-11-25 10c-14 5-29 7-32 4-3-4-6-1-6 6v13l-15-6-15-5v27l1 27 9-16 9-16 51 11c27 5 50 14 50 18s9 8 20 8h20v-30zm-220-20v-40h-39l5 15 6 15h-9c-5 0-9 9-10 19l-2 20 14-5 13-5 7 10c11 19 15 12 15-29zm-555 20 6-10h-10c-6 0-11 5-11 10 0 6 2 10 4 10 3 0 8-4 11-10zm455 0v-11l16 3 17 3 4-11 4-12-31-4-31-5-4 8c-7 10 5 39 16 39 5 0 9-5 9-10zm-892-70 1-15-9 20c-5 11-8 29-8 40v20l8-25c4-14 8-32 8-40zm452 30 15-10h-45v10c0 13 11 13 30 0zm647-16c-3-3-12-4-19-1l-13 5 19 1c11 1 17-2 13-5zm-1371-24c8 0 14-5 14-10v-11l-35 3c-34 2-51 18-20 18h15l1 13 1 12 5-12c2-7 11-13 19-13zm414 6c0-3-4-8-10-11l-10-6v10c0 6 5 11 10 11 6 0 10-2 10-4zm290-37 13-30-12-23c-7-12-11-28-9-35l3-13-11-5c-7-2-18 2-26 10-7 8-20 16-28 20l-15 5 18 1 17 1v60h-60v-70h-20v-50h-20v130h11c6 0 17 7 25 15l15 15h87l12-31zm-767-6c-7-2-21-2-30 0l-18 5h60l-12-5zm1137-48v-45h-15l3 45c2 25 6 45 8 45s4-20 4-45zm-900 15v-20h-20v-70h-40v40h22l-2 28c-3 40-2 42 20 42h20v-20zm1193 13c-7-2-19-2-25 0l-13 5h50l-12-5zm113-28-6-25h-15c-8 0-15-3-15-8 0-10-80-44-94-39l-11 4 33 8 34 7-4 29-4 29 11-10 12-10 28 26c31 29 40 26 31-11zm-1586 4c0-5-9-9-20-9H50v28l20-5c11-3 20-9 20-14zm1369 2-1-16-5 12-5 13-20-11-20-11 5-18 5-18-24 3-24 2-9-11c-5-6-9-15-9-21 0-5-5-11-11-13-15-5-14 10 5 46l15 32h49v9c0 5-10 11-22 14l-23 4h95l-1-16zm68-43-5-13v50l5-12c2-7 2-19 0-25zM70 1500v-20H50v40h20v-20zm70 0v-20h-20v40h20v-20zm770-10c0-5-5-10-11-10h-10l6 10c3 6 8 10 11 10 2 0 4-4 4-10zm537-1-19-11-11 11-11 11h30l29-1-18-10zm-587-19c0-5-4-10-10-10-5 0-10 5-10 10 0 6 5 10 10 10 6 0 10-4 10-10zm1033-22-22-22-7 6-6 7 13 15c8 8 21 15 29 16h14l-21-22zm-1613-19v-20l-10 6c-5 3-10 13-10 21s5 14 10 14h10v-21zm510 11v-10h-40v20h40v-10zm480-5c0-8-2-15-4-15s-6 7-10 15l-5 15h9c6 0 10-7 10-15zm672-7-12-12v10c0 6 3 14 7 17 3 4 9 5 12 2 2-3-1-11-7-17zm-914-39 13-17-16-6-15-5v26c0 14 1 24 3 22 1-2 8-11 15-20zm519-15c-3-3-12-4-19-1l-13 5 19 1c11 1 17-2 13-5zm233-4v-9l-15 5c-8 4-15 8-15 10s7 4 15 4 15-4 15-10zm-313-6c-3-3-12-4-19-1l-13 5 19 1c11 1 17-2 13-5zm422-28c-3-3-15-3-27 1l-22 5 11 15 12 14 16-15c8-9 13-18 10-20zm98-23-5-18v60l5-12c2-7 2-21 0-30zm-723 18c4-5 3-16 0-25l-6-16h-33l14 9 14 9-6 16-6 16h9c5 0 11-4 14-9zm116-1c0-5-4-10-10-10-5 0-10 5-10 10 0 6 5 10 10 10 6 0 10-4 10-10zm30 0c0-5-5-10-11-10h-10l6 10c3 6 8 10 11 10 2 0 4-4 4-10zm-200-4c0-3-4-7-9-11l-10-5-6 10-6 10h15c9 0 16-2 16-4zm526-8 7-11-11 7-11 6-7-11-7-12 22-18 22-18 14 6 15 5v-22h-60v20h-54l12 12c17 17 15 28-5 29l-18 2 35 7c19 4 36 8 37 9 1 0 5-4 9-11zm-596-12c0-3-4-7-9-11l-10-5-6 10-6 10h15c9 0 16-2 16-4zm685-16 6-10h-42l6 10c3 6 10 10 15 10s12-4 15-10zm-655-9c-8-5-31-11-50-15l-35-6 30 15c17 8 39 14 50 14h20l-15-8zm877-13-5-13-1 19c-1 11 2 17 5 13 3-3 4-12 1-19zm-1614 5c-7-2-19-2-25 0l-13 5h50l-12-5zm1163-7c8-8 14-23 13-33v-18l-9 20-9 20-1-25-2-25-5 13c-2 6-11 12-19 12s-14 4-14 9v10l-27 4-28 4 32 2c17 0 35 6 38 11 8 13 14 13 31-4zm-149-2c-3-3-12-4-19-1l-13 5 19 1c11 1 17-2 13-5zm-50-10c-3-3-12-4-19-1l-13 5 19 1c11 1 17-2 13-5zm-147-46-20-22 4-13 5-13h-19v40h10c6 0 10 6 10 13s6 19 12 25l13 13 3-10c2-6-6-20-18-33zm112 23c-5-3-14-15-20-26l-11-20-1 32v31l21-5 21-6-10-6zm128 2c0-2-7-11-15-19l-15-15v50l15-5c8-4 15-8 15-11zm655 7 6-10h-10c-6 0-11 5-11 10 0 6 2 10 4 10 3 0 8-4 11-10zM66 1203c-11-11-17 4-9 23l7 19 4-18c2-10 1-21-2-24zm1452 3c-7-8-15-12-17-11-5 6 10 25 20 25h10l-13-14zm444-8-12-12-12 12-12 12h48l-12-12zm-575-20 5 12h38v-32l-15 6-15 5v-19h-48l5 21 6 21 9-14 10-13 5 13zm453-11v-14l-22 3c-34 4-35 5-8 14 14 4 26 8 28 9 1 1 2-5 2-12zm-139-47-23-19-13 12-13 12 22 7c11 3 27 6 35 7l14 1-22-20zm-421-20c0-5-5-10-11-10h-10l6 10c3 6 8 10 11 10 2 0 4-4 4-10zm45-80c-3-5-14-10-23-10h-17l15 10c8 5 19 10 23 10h8l-6-10zm1065-117v-13h-16c-20 0-42 22-37 36l4 12 24-12 25-11v-12zm-1190 17c0-13-11-13-30 0l-15 10h45v-10zm-540-7c0-5-16-9-35-9l-35-1 6 8c6 11 64 12 64 2zm484-9c9-3 16-10 16-14v-8l-20 5c-11 3-20 9-20 14 0 11 3 11 24 3zm-394-29v-15h-40v-9c0-5 5-11 11-13l10-3-3-45-4-45-7 40c-4 22-14 52-21 66l-13 26 22-5 23-4 6 11c10 15 16 14 16-4zm120-11v-14l28 6 27 6-15-11-15-11h-40l-40 1 18 13c9 7 17 19 17 25v12l10-6c6-3 10-13 10-21zm443-8 22 4-20-9c-30-15-35-13-34 12l1 22 5-16 4-17 22 4zm1127-9 15-5-15-1c-8 0-24 4-35 9l-20 9h13l13 1-6 13-6 12 13-16c7-9 20-18 28-22zm-1370-29v-18h-10c-5 0-10 7-10 15 0 7-7 18-16 23l-17 9 7 11 7 11 19-17 20-16v-18zm55 32c-3-4-13-10-24-13l-20-5 11 18 12 18 13-5c7-3 11-9 8-13zm388-10 5-20h-8c-5 0-16 3-24 6l-17 6 12 14c16 19 26 17 32-6zm92 10c-27-12-35-12-35 0v10l28-1h27l-20-9zm430 0 6-10-8 1c-4 0-17 4-28 9l-20 9h22c12 1 25-3 28-9zm330 0 6-10-18 1c-10 0-27 4-38 9l-20 9h32l32 1 6-10zM659 806l-1-21-5 20c-3 11-10 27-17 35l-11 15 18-14 17-13-1-22zm1294 37c-7-2-21-2-30 0l-18 5h60l-12-5zm182-3 6-10-15 6c-18 7-21 14-7 14 6 0 13-4 16-10zm-931-16 6-15-10 6c-6 3-10 10-10 16 0 14 7 11 14-7zm1312-54h34v-40h-70v-11c0-6 8-13 18-16l19-4 16-38 17-38-1-34-1-34-5 15c-4 8-13 22-22 30l-16 15 3 23 3 22h-14c-8 0-28 7-43 15l-29 15h45l1 33c0 17 1 50 1 72l1 40 4-32 4-33h35zm14 60c0-5-4-10-10-10-5 0-10 5-10 10 0 6 5 10 10 10 6 0 10-4 10-10zm110 0c0-5 7-10 15-10h15v-40h-16c-8 0-22 7-31 15l-15 16 6 14c6 17 26 20 26 5zM346 803c-10-10-19 5-10 18l8 13 4-13c2-7 1-15-2-18zm245 4c-13-13-26-3-16 12l6 11 11-6 10-6-11-11zm-311-2v-15h40v-20h50v-48l13-5 12-5-17-1-18-1v40h-34c-19 0-41 3-50 6l-16 6v49l-10-6-10-6v21h40v-15zm2040-7v-23l-10 15c-13 19-13 30 0 30h10v-22zm-1160-4c0-2-7-4-15-4s-15 4-15 10v9l15-5c8-4 15-8 15-10zm69-41v-58l-10 24-9 24 6 33c9 50 14 41 13-23zm924 27c-7-28-13-25-13 6v25l9-5 9-6-5-20zm82 21-5-9 17-5 18-5-34-1-33-1 12 15c7 8 17 15 22 15h9l-6-9zM517 768l-5-13v50l5-12c2-7 2-19 0-25zm117 15c3-10 8-23 11-29l6-11-20-6-20-5-18 15-18 14 30-6 30-6-12 12c-15 15-17 39-4 39 5 0 11-8 15-17zm283-20v-38l-4 28-4 27h-30l6 10c3 6 12 10 19 10h12l1-37zm89 1 2-29-5 28c-2 15-9 27-14 27h-9l-1-32-2-33-4 23c-3 13-2 30 1 39l6 15 13-4 12-5 1-29zm311 14-5-13-1 19c-1 11 2 17 5 13 3-3 4-12 1-19zm63-98-11-20h31v-70h-37l-13 25-13 25h-14c-7 0-13 4-13 9v8l25-5 25-4v8c0 5-10 14-22 19l-23 10-1 28-1 27 4-25 4-26 27 3 27 3 1 15c1 8 3 33 5 55l3 40 3-52 4-52-11-21zm241 98 12-23-24 20c-13 11-26 21-28 22-2 2 3 3 12 3h16l12-22zm156 16c-3-3-12-4-19-1l-13 5 19 1c11 1 17-2 13-5zm310-9c0-8-4-15-9-15-4 0-8-7-8-16v-15l-10 6c-14 9-12 21 6 39 19 20 21 20 21 1zm-980-1c-3-3-12-4-19-1l-13 5 19 1c11 1 17-2 13-5zm902-46v-53l-8 18c-7 18-3 87 5 87 2 0 4-24 3-52zm771 32v-20h-20v-50l-27 6c-16 4-33 14-40 23l-11 16 10 12 10 13h48v10c0 6 7 10 15 10h15v-20zm-809-35 3-40 11-7 10-8h-57l5-20 5-20h-46l-6 16-6 17 13-11c16-14 28-6 20 14l-5 14h42v47c0 55 7 54 11-2zM828 748l3-15-26-5c-29-6-29-5-13 22 14 22 31 21 36-2zm1072 12c0-5-4-10-10-10-5 0-10 5-10 10 0 6 5 10 10 10 6 0 10-4 10-10zm477-27-5-18v60l5-12c2-7 2-21 0-30zm-1222 17 6-10-15 6-16 6v-11c0-6-5-11-11-11h-11l12 15c14 17 26 19 35 5zm-735-16v-15l-10 6c-5 3-10 10-10 16 0 5 5 9 10 9 6 0 10-7 10-16zm662-31c6-7 20-13 32-14l21-1-25-8-25-7 27-4 27-4-8-14-9-14-17 17-18 17-11-4c-7-3-20 1-31 9l-19 14h34l1 33 1 32 5-20c3-11 10-26 15-32zm1005 25-5-13-1 19c-1 11 2 17 5 13 3-3 4-12 1-19zm173 12c-18-12-50-13-50-2 0 4 15 9 33 10l32 2-15-10zm157-12-5-13-1 19c-1 11 2 17 5 13 3-3 4-12 1-19zm-727-3 13-15-17 6c-9 3-16 10-16 15 0 13 6 11 20-6zm-990-15c0-5-4-10-10-10-5 0-10 5-10 10 0 6 5 10 10 10 6 0 10-4 10-10zm1124-14-6-16-9 6-9 5 13 14c15 16 19 13 11-9zm-1094-1c0-8-4-15-10-15h-9l5 15c4 8 8 15 10 15s4-7 4-15zm128-5 27-1-18-10-18-11-15 12c-7 7-14 18-13 24l1 11 5-12 5-13h26zm1052 4v-15l-10 6-10 6 5 10c9 14 15 11 15-7zm-711-14c-13-9-39-2-39 10v7l26-5 26-5-13-7zm1032 2-34-3-8 8-8 8 42-5 42-5-34-3zm389-2v-20h-40v40h40v-20zm-999 1c-8-5-20-7-27-4l-12 5-5-24-4-23-2 28-1 27h65l-14-9zm152 2c-7-2-21-2-30 0l-18 5h60l-12-5zm591-5c-3-4-14-8-24-8s-21 4-24 8l-5 9h58l-5-9zm-1454-8c0-5-7-10-16-10h-15l6 10c3 6 10 10 16 10 5 0 9-4 9-10zm566-5-5-14 15-16 15-15-15-6-15-6-16 16-16 16h21v40h22l-6-15zm369 5c-3-5-14-10-23-9h-17l20 9c27 11 27 11 20 0zm854-15 3-19-15 12-15 13-4-13-4-12-6 22-6 23 21-3 22-3 4-20zm-1929-5h19l6-20 6-20h89v-33l-52 8c-29 4-68 7-87 6l-35-1-8 12-9 13 3-15c3-20-23-60-40-60h-13l11 20c6 10 10 23 9 27s-1 16 0 26l1 17 33 1 32 1-13 5-12 5 6 10 6 9 15-5c8-3 23-6 33-6zm487-22-5-13-1 19c-1 11 2 17 5 13 3-3 4-12 1-19zm861 2 12-20h150v20h105l15-10 15-10-20-1h-20l15-7c8-4 16-12 17-19l3-12-15 5c-8 3-17 14-20 25-7 21-20 25-30 8l-7-10 18-14 19-14-27-1h-28v-50h-20v51l-17-3-18-3-10-23-10-22h-41l-14 20-14 20h-19c-10 0-28 5-39 11l-20 11-11-11-11-11h-66v-12l-1-13-10 18c-5 9-14 17-19 17h-10v-56h-47l-48 1-3-22-3-23h-59v9c0 5 5 11 12 13l12 4-8 12-7 12h-199v20h-70v70h109l15-15c19-20 23-19 50 10l23 24 9-8 9-9 100-5 99-5 4-11 4-11h48v51l-10-6c-5-3-10-4-10 0 0 10 43 24 75 24l30 1 13-20zm152 16c0-3-4-8-10-11l-10-6v10c0 6 5 11 10 11 6 0 10-2 10-4zm180-6c0-5-7-10-16-10h-15l6 10c3 6 10 10 16 10 5 0 9-4 9-10zm-1420-21c0-14-17-10-23 5l-6 15 15-6c7-3 14-9 14-14zm-65-19c-4-6-10-8-15-5s-11 1-15-5l-6-10-10 6-9 5 5 10c4 5 17 9 31 9h25l-6-10zm1725 5c0-3-9-15-19-27l-20-21-18 8c-10 5-27 7-38 6l-20-3 25 21 25 20 33 1c17 0 32-2 32-5zm-1652-32c-10-2-26-2-35 0l-18 5h70l-17-5zm140 0c-21-2-57-2-80 0l-43 4h160l-37-4zm1319-13-5-19 19-6 19-6v-29h-36l-14 20c-8 11-20 20-27 20s-13 4-13 10v9l14-5 14-5 13 15c19 21 22 20 16-4zm-1237-20v-20h-60l12 20 13 20h35v-20zm1430-94v-42l12-12 12-12h-34v20l-37 1-38 1 13 5 12 5v48h15c18 0 19 12 4 27l-11 11 26-5 26-5v-42zm-740 14c0-5-5-10-11-10h-10l6 10c3 6 8 10 11 10 2 0 4-4 4-10zm40-10c0-5 7-10 15-10s15 5 15 10v10h44l-20-15c-10-8-27-15-36-15h-18v-28l-20-5-20-5v14c0 8 5 14 11 14h11l-5 20-5 20h14c8 0 14-4 14-10zm277 4c-3-3-12-4-19-1l-13 5 19 1c11 1 17-2 13-5zm227-1c-5-5-12-12-16-18l-8-10v35h33l-9-7zM955 430c-3-5-11-10-16-10h-10l6 10c3 6 11 10 16 10h10l-6-10zm385 1c0-6-4-13-10-16l-10-6v15c0 9 5 16 10 16 6 0 10-4 10-9zm183-5 6-14 20 5 19 5 16-9 15-8-8-13-8-13-16 7-17 6 6 9 5 9h-10c-6 0-11-4-11-10v-10h-52l6 16c3 9 6 20 6 25 0 14 17 11 23-5zm280 7c-7-2-21-2-30 0l-18 5h60l-12-5zm1052-3 6-9-21-21-21-21-10 7-10 6-20-18-19-18 12-7c7-4 10-10 7-13s-18 4-34 14l-30 20h35v30h-15c-8 0-15 5-15 10v10h70v20h59l6-10zm-415-9c0-5-9-11-20-14l-20-5v8c0 8 16 18 33 19 4 1 7-3 7-8zm-720-5c0-3-4-7-9-11l-10-5-6 10-6 10h15c9 0 16-2 16-4zm167-32c-3-3-12-4-19-1l-13 5 19 1c11 1 17-2 13-5zm246-15-11-11-18 5-19 5 23 1 22 1v23l7-6 7-7-11-11zm437-2 15-5-22-1-23-1v35l8-11c4-6 14-14 22-17zm-1240-3c0-2-9-4-20-4s-20 4-20 9v9l20-5c11-3 20-7 20-9zm1050 5 15-11-15 5c-8 2-24 0-35-6l-20-10 14 16c16 20 21 20 41 6zM633 350l5-20h-28v20c0 11 4 20 9 20s11-9 14-20zm880 13c-7-2-19-2-25 0l-13 5h50l-12-5zm1302-3 6-10h-10c-6 0-11 5-11 10 0 6 2 10 4 10 3 0 8-4 11-10zm-1383-95-4-25h-14c-8 0-14-3-14-7 0-5-7-17-15-27l-15-20-15 20c-8 10-15 25-15 32v12h70v18c0 21 9 34 20 27l7-5-5-25zm1238-41v-27l-17-13c-25-19-32-17-26 6 3 11 9 20 14 20s9 9 9 20v20h20v-26zm210-32c0-7 6-15 14-18l15-6-6-14c-3-8-11-14-19-14-7 0-21-11-30-25l-16-25-20 25-19 25h-39v29l20 6 20 6 16 29 17 28 23-16c13-9 24-23 24-30zm-1760 22c0-9-8-23-17-30l-18-14 19-15 20-15h-44v90h40v-16zm458-4-13-20h-17c-10 0-18 4-18 8 0 14 23 32 42 32h18l-12-20zm428-17c-11-11-17 4-9 23l7 19 4-18c2-10 1-21-2-24zm264 25c0-7-7-21-14-30l-13-18-44-1c-24 0-38-3-31-6l12-5-6-9c-3-5-18-9-35-9h-29v-10c0-5-4-10-10-10h-10v40h50v42l-15-6-15-5v19l25-2 25-2v-13c0-7 5-13 11-13h11l-6 25-6 25h100v-12zm190-18v-30h-90v40h15c8 0 15 5 15 10v10h60v-30zm154 15c-4-8-12-15-20-15h-14v30h39l-5-15zm-832-70-4-75h11c6 0 11-5 11-11V48l-23 6-23 5-23-16-23-16-87 2-86 2-3 10c-5 12-32 12-32-1V30h-180v40h19l-6-16-6-17 18 11 19 10 23-9 23-9v50h10c6 0 10-4 10-9s14-11 31-13l31-5 5 14 5 13 58-2 57-2 17 16c9 9 16 22 16 28v11l12-7 11-7 14 19 14 19 8-14 9-14 11 7 11 7-5 10-6 9 15-6 16-6v32h-12l-13 1 19 14c11 8 22 15 25 15s5-34 3-75zm-522 31v-35l-18 2-19 1v15c0 12 24 47 35 50 1 1 2-14 2-33zm715 24-6-10h10c22 0 10-17-24-36-19-10-35-22-35-26 0-5-9-8-20-8h-20v16c0 8 6 22 14 30l15 14 16-6 16-7 6 22 5 21h29l-6-10zm-665-50v-30h-20v60h20v-30zm1310-1v-9h-40v9c0 11 22 20 33 14 4-2 7-8 7-14zm-260 3v-9h-60v17h60v-8zm-91-64-1-23-4 12-5 12-15-6-14-5V40h23l-7 7-6 7 27 11c16 7 34 10 41 7l13-4-17-19-16-18-62 1c-34 0-71-2-83-6l-21-7-7 11-6 10h31v30h80v10c0 6 7 10 15 10s15 5 15 10c0 6 5 10 10 10h10l-1-22zm-885-14 6-15-10 6c-6 3-10 10-10 16 0 14 7 11 14-7zm1356-26V30h-40v29l-17 4-18 5 28 1 27 1v25l10-15c5-8 10-23 10-32zM1210 60c0-5-7-10-15-10s-15 5-15 10c0 6 7 10 15 10s15-4 15-10zm-46-15 5-15h-9c-6 0-10 7-10 15s2 15 4 15 6-7 10-15zm676 6c0-5-7-11-14-14l-15-6 6 15c6 15 23 19 23 5zm988-11 27-8-42-1-42-1 5 15 6 15 10-6c5-3 22-10 36-14zm-445-7c-7-2-19-2-25 0l-13 5h50l-12-5zm-583 1852v-15h30v30h-30v-15zm63-210c-9-25 2-27 22-5l18 20h-34l-6-15zm-740 68-23-4v-59h32l-6 15-5 15h29v20c0 11-1 19-2 19-2-1-13-4-25-6zm944-1110c-12-11-8-23 8-23h15v15c0 16-12 20-23 8zm-237-103c0-5 5-10 10-10 6 0 10 5 10 10 0 6-4 10-10 10-5 0-10-4-10-10zm58 3c6-2 18-2 25 0l12 5h-50l13-5zm772-103c0-5 5-10 11-10h10l-6 10c-3 6-8 10-11 10-2 0-4-4-4-10zM1524 2455l-6-14 15-16c9-8 20-15 26-15h11v60h-41l-5-15zm421 6-6-11h71v-10c0-5 7-10 16-10h15l-3 18-3 17-42 3-41 3-7-10zm818-7-6-16 14-9 14-9h-25v-30h51l25 25 26 26-6 14-5 15h-82l-6-16zm-1528-4c3-5 8-10 11-10 2 0 4 5 4 10 0 6-5 10-11 10h-10l6-10zm-868-17c-4-3-7-12-7-19v-12l20 5 20 5v28h-13c-8 0-17-3-20-7zm663-8v-15h30v30h-30v-15zm680 5v-10h-50v-30h100v50h-50v-10zm230 0c0-5 7-10 15-10s15 5 15 10c0 6-7 10-15 10s-15-4-15-10zm111-16 1-19 5 13c3 7 2 16-1 19-3 4-6-2-5-13zm-1611-9v-15h30v30h-30v-15zm1030 0v-15h30v30h-30v-15zm-1330-30v-15h30v30h-30v-15zm155 5-6-10 16-6c19-8 30 0 20 15-8 14-22 14-30 1zm195-10c0-5-7-10-15-10s-15-4-15-10v-9l17 6 16 6-6-16-6-17h9c6 0 10 6 10 14s3 21 6 30l6 16h-11c-6 0-11-4-11-10zm233-5c0-8 4-15 9-15 4 0 8 7 8 15s-4 15-8 15c-5 0-9-7-9-15zm-701-7c-1-10-6-18-12-18H0v-19c0-11 5-23 10-26 6-3 10-12 10-18v-12l-10 15-10 15 2-32c1-18 4-30 7-28 2 3 9-2 15-9 6-8 22-17 36-21l24-8-17 17c-9 10-17 22-17 27s-7 9-16 9H19l15 22c9 12 16 26 16 31v8l-9-6-10-5-4 37c-2 21-4 30-5 21zm1569 3-13-9 3-11 4-11 17 20c18 21 13 26-11 11zm567 2-18-4v-14c0-8 5-17 10-20l10-6-5-10-6-9h29l-1 35c-1 19-1 34-1 34-1-1-9-3-18-6zm-1743-13-6-10h10c6 0 11 5 11 10 0 6-2 10-4 10-3 0-8-4-11-10zm152-10-5-20h13c14 0 27 25 18 34-11 11-21 6-26-14zm123 9v-10l10 6c6 3 10 8 10 11 0 2-4 4-10 4-5 0-10-5-10-11zm174-3c-10-8-19-20-19-28l-1-13-14 3-15 3 13-13 12-12 20 12 20 12v-21l10 6 10 6v59h-8c-5 0-17-6-28-14zm1066 8c0-3 6-12 14-20 20-19 26-18 26 6v20h-20c-11 0-20-3-20-6zm425-4-6-10 7-11 7-11 8 13c5 8 9 17 9 22 0 10-18 9-25-3zm68 3c-7-3-13-12-13-21v-16l17 17c18 18 16 27-4 20zM40 2335v-15h30l2-17c0-10 1-26 0-35l-2-18h9c6 0 13 10 17 22l7 22-12 4-11 4v48H40v-15zm240 0c0-8 5-15 10-15 6 0 10 7 10 15s-4 15-10 15c-5 0-10-7-10-15zm790 5-15-10 15-9c17-12 30-5 30 15 0 16-9 18-30 4zm-450-10c0-5 7-10 15-10s15 5 15 10c0 6-7 10-15 10s-15-4-15-10zm95-1c-12-19 5-23 22-6l17 17h-16c-9 0-20-5-23-11zm-487-21 12-12 12 12 12 12h-48l12-12zm1992-3v-15h30v30h-30v-15zm210-16v-30l-17-17-16-17-5 13c-2 6-10 12-18 12h-14v-50h70l20 17 20 17v56h10c6 0 10 7 10 15v15h-60v-31zm-115 1c-4-12-5-24-2-27 3-2 8 5 12 17s5 24 2 27c-3 2-8-5-12-17zm555 9v-10l10 6c6 3 10 8 10 11 0 2-4 4-10 4-5 0-10-5-10-11zm-34-14c-3-9-6-21-6-26v-9h60v10c0 6 7 10 15 10h15v22l-31-7-31-7-8 12-7 12-7-17zm-2668-2c7-3 16-2 19 1 4 3-2 6-13 5l-19-1 13-5zm452-7c0-8 4-17 8-20l8-5 1 20 2 19h-10c-5 0-9-6-9-14zm1490 3v-10l10 6c6 3 10 8 10 11 0 2-4 4-10 4-5 0-10-5-10-11zm420-20v-10l10 6c6 3 10 8 10 11 0 2-4 4-10 4-5 0-10-5-10-11zm-1854-8-6-10 9-5 10-6 5 9 6 10-9 5-10 6-5-9zm1912 2-18-4v-49h-10c-5 0-10-4-10-10v-10h80v20h21c22 0 49 22 49 39v11h-27c-16 0-37 2-48 4s-28 2-37-1zm-503-23c3-5 8-10 11-10 2 0 4 5 4 10 0 6-5 10-11 10h-10l6-10zm-1245-11c0-6 6-17 14-25l15-14h51v50h-80v-11zm1622-20-12-19h9c5 0 14 6 20 14l12 14-9 5-8 6-12-20zM0 2140v-60h13c7 0 18 10 26 21l13 22-15-6-15-6-5 19-5 18 9 9 10 10-7 16c-3 9-10 17-15 17H0v-60zm2790 50v-10h50v20h-50v-10zm-2437-15v-14l9 5 8 5-5 10c-9 13-12 11-12-6zm2544-2c-10-9-9-43 1-43 5 0 14 11 20 25l12 25h-14c-7 0-16-3-19-7zm-2587-13c0-5 4-10 9-10 6 0 13 5 16 10l6 10h-15c-9 0-16-4-16-10zm1900 0c0-5 4-10 9-10 6 0 13 5 16 10l6 10h-15c-9 0-16-4-16-10zm415 0c3-5 8-10 11-10 2 0 4 5 4 10 0 6-5 10-11 10h-10l6-10zm-2175-11-15-11 13-5 12-5v-26l1-27 10 18 11 19-10 10-10 10 5 14c6 17 3 17-17 3zm247 4c-13-12-7-23 13-23h20v30h-13c-8 0-17-3-20-7zm178-13-18-20 8-8 8-7 4 10c2 6 8 17 13 25l10 15 11-15 11-15-4 14c-6 23-23 23-43 1zm64 18c-6-22-6-44 1-62l9-21v43c1 23-1 42-4 42s-5-1-6-2zm-109-24v-15l10 6 10 6-5 10c-9 14-15 11-15-7zm1501 0 1-19 5 13c3 7 2 16-1 19-3 4-6-2-5-13zm39-4v-20h15c17 0 18 2 9 24-9 23-24 20-24-4zm440 10c0-5 5-10 10-10 6 0 10 5 10 10 0 6-4 10-10 10-5 0-10-4-10-10zm-2168-12c-7-7-12-20-12-30v-18h40v21l9-5 8-5-5 24-4 25h-12c-7 0-17-5-24-12zm1942-5-18-18 20-3c10-2 23-8 29-13 12-12 25-11 25 1v10h-34l12 12c7 7 12 16 12 20 0 14-28 8-46-9zm-2168-2-6-9 15-6 15-5v9c0 5-4 11-9 15l-10 5-5-9zm337-8-33-4v-39h-40v-30h-15c-8 0-15-4-15-10v-10h-40v-60h40v-10c0-5 7-10 15-10h15v15c0 8-4 15-10 15-5 0-10 5-10 10v10h68l5 13 4 12 27-30c14-16 26-33 26-37 0-5 7-8 15-8h15v19c0 11 3 26 6 34l5 14-25-4-26-5v22h-30v60h30v22l14-5 15-6-6 15c-3 7-8 13-12 12-3 0-21-3-38-5zm2033 0c-11-11-6-23 9-23 8 0 15 4 15 9 0 13-16 22-24 14zm-56-23c0-5 5-10 10-10 6 0 10 5 10 10 0 6-4 10-10 10-5 0-10-4-10-10zm-2309-16 1-19 5 13c3 7 2 16-1 19-3 4-6-2-5-13zm-38-1c-14-5-18-33-5-33 10 0 32 22 32 32 0 9-8 9-27 1zm1878-9 1-19 5 13c3 7 2 16-1 19-3 4-6-2-5-13zm259 0v-15l10 6c6 3 10 10 10 16 0 5-4 9-10 9-5 0-10-7-10-16zM0 2049v-21l13 4c6 3 13 12 15 21l3 17H0v-21zm238-9-28-30v-40h-50v-30h100v50h11c6 0 17 6 25 14l14 15v51h-45l-27-30zm202 15c0-8-4-15-10-15-33 0 10-49 43-50 20 0 47 22 47 39v11h-50v30h-30v-15zm1760 0v-15h-21c-22 0-49-22-49-39v-11h80v40h40v40h-50v-15zm190 0c0-8-4-15-10-15-5 0-10 5-10 10 0 6-7 10-15 10s-15-4-15-10c0-5 5-10 10-10 6 0 10-7 10-15v-15h15c8 0 15-4 15-10 0-5 7-10 15-10h15v80h-30v-15zm254 1-6-16h-88v-14c0-8 7-16 15-20l15-5-6-15-5-14 11-7 12-8 22 26c12 13 30 26 41 28l20 4v48l-12 4-13 5-6-16zm216 0v-16h-15c-23 0-18-17 8-24 33-9 34-8 33 21l-1 26-12 5-13 4v-16zm-2020-51v-15h30v30h-30v-15zm1945-15-7-12 10-10 10-10 18 4 19 3v30l-22 3-21 3-7-11zm-2435-36v-15l37 3 36 3 5 13 4 12h-82v-16zm2600-9v-25h30v50h-30v-25zM9 1951l15-9-14-17-13-16 11-11 12-12v32l25-3 25-2v12c0 12-41 35-63 35H-5l14-9zm2731-16v-15h30v30h-30v-15zm-2625-15c-7-12 2-30 16-30h9v40h-9c-6 0-13-4-16-10zm2557-25-34-35h-38v-30h-29l6-17 7-18-17 14c-22 18-26 13-20-26l5-33h78v11c0 11 25 40 35 39h35v30h-50v20h70v80h-7c-5-1-23-16-41-35zm-47 5c3-5 8-10 11-10 2 0 4 5 4 10 0 6-5 10-11 10h-10l6-10zm-2305-16v-15l17 3c9 2 18 9 21 16l4 12h-42v-16zm496 0-6-15 17 3c9 2 18 9 21 16l4 12h-30l-6-16zm-160-1c-9-9-7-33 3-33 5 0 11 7 14 15l6 14-8 5c-5 3-11 3-15-1zM0 1865v-15h70v9c0 11-25 21-51 21H0v-15zm858-12c6-2 18-2 25 0l12 5h-50l13-5zm1342-12v-19l13-5 12-5-22-1c-12-1-23 3-25 8-1 4-14 11-28 15-14 3-19 3-12 0l12-6v-48h30v-15c0-8 5-15 10-15 6 0 13 7 16 15l6 15h36l4 28c2 16 2 34 0 40l-4 12h-48v-19zm210 4v-15h-50v-19c0-11-4-23-10-26-5-3-10-13-10-21v-14h100v63l17 12 16 12-7 11-7 12h-49v-15zM65 1821l-6-21 6-10c6-9 35-15 35-6 0 2-6 16-14 31l-14 27-7-21zm105 11c0-5 7-9 15-9h14l-5 9c-3 4-9 8-15 8-5 0-9-4-9-8zm2614-17c-3-8-3-19 1-25l6-10h69v20h50v30h-121l-5-15zm-304-5c0-5 5-10 10-10 6 0 10 5 10 10 0 6-4 10-10 10-5 0-10-4-10-10zm-370-40v-22l13 5c6 2 12 10 12 17s-6 15-12 18l-13 4v-22zM16 1743c8-34 4-29 31-37l23-7v36l-10-15-10-15v53l-16 6c-24 9-25 8-18-21zm2244 16v-10l10 6c6 3 10 8 10 11 0 2-4 4-10 4-5 0-10-5-10-11zm610 0v-10l10 6c6 3 10 8 10 11 0 2-4 4-10 4-5 0-10-5-10-11zm24-34 7-26-17-16-16-16-6 10c-4 6-18 13-32 17-14 3-19 3-12 0 18-8 15-24-5-24-10 0-27-7-37-15l-20-15h24v-40h-10c-5 0-10-6-10-13s-11-21-25-31l-25-19 6-8c3-5 14-9 25-9h19v-10c0-5 7-10 15-10h15v40h50v11c0 6 8 18 17 27l16 17 5-13c5-16 20-15 38 2 20 21 17 34-8 39l-23 4 23 8c12 4 22 11 22 16s5 9 10 9h10v-50h50v110h-61l-15 15c-9 8-20 15-26 15h-10l6-25zm-604 0v-15h60v30h-60v-15zm287-12c-4-3-7-15-7-25v-18l-17-1c-33-2-58 3-61 12-5 13-29 11-36-3l-6-13-6 13c-9 19-25 14-56-18l-29-31 6-9 5-9-14-8c-15-8-19-23-17-60l1-23h30l1 13c1 6 1 18 0 25-1 6 3 12 9 12 5 0 10-5 10-11s6-17 14-25 19-14 25-14h11v15c0 8-4 15-10 15-5 0-10 5-10 10v10h18c10 0 28 9 40 20s28 20 36 20h15l10 19 10 18-6 7-6 6h48l13 20 13 21-6 9c-7 12-19 13-28 3zm119 0c-3-3-6-12-6-20v-13h30v14c0 17-14 28-24 19zm70 0c-3-3-6-12-6-20v-13h30v14c0 17-14 28-24 19zM0 1675c0-8 4-15 10-15h9l-6-17-6-16 11 7 12 7v49H0v-15zm2613 0c-7-8-13-26-13-40v-25l-25 6-25 6v-52h-10c-5 0-10-7-10-15v-15h120v26l35 14c19 7 36 19 39 27l5 13h-49v20l23-3 22-2v30l-37 3-38 3v10c0 14-23 10-37-6zm-1947-4-6-9 19-5 20-5-6 14c-6 16-19 18-27 5zm1674-1c0-5 7-10 15-10s15 5 15 10c0 6-7 10-15 10s-15-4-15-10zm-80-101v-10l10 6c6 3 10 8 10 11 0 2-4 4-10 4-5 0-10-5-10-11zm690-14v-15h30v30h-30v-15zm-692-12c7-3 16-2 19 1 4 3-2 6-13 5l-19-1 13-5zm222-22v-21h31l-3 17c-2 9-9 18-15 21l-13 4v-21zm511 3 1-19 5 13c3 7 2 16-1 19-3 4-6-2-5-13zm-621-26-25-20 20-14c10-8 27-14 37-14h18v21c0 11-6 26-13 33l-13 13-24-19zm-1716-8v-20h27l-3 17c-2 9-8 18-13 20l-11 3v-20zm1946 10c0-5 5-10 10-10 6 0 10 5 10 10 0 6-4 10-10 10-5 0-10-4-10-10zm251-7-9-17-14 12-15 12-18-14-18-13 7-12 8-12 15 12 15 13 9-15 9-14v25h29l11 20 11 20h-15c-8 0-19-8-25-17zm64 7-6-10h10c6 0 11 5 11 10 0 6-2 10-4 10-3 0-8-4-11-10zm-355-11v-10l10 6c6 3 10 8 10 11 0 2-4 4-10 4-5 0-10-5-10-11zm130-4v-15h30v30h-30v-15zm280-45v-60h30v120h-30v-60zm-750 40c0-5 7-10 16-10h15l-6 10c-3 6-10 10-16 10-5 0-9-4-9-10zm250-1v-10l10 6c6 3 10 8 10 11 0 2-4 4-10 4-5 0-10-5-10-11zm-1960-13c0-7 6-19 14-25l14-12 6 17c8 20-1 34-20 34h-14v-14zm2370 7c1-14 27-43 39-43h11v50h-25c-14 0-25-3-25-7zm-350-22c-19-37-6-42 28-12 27 23 28 31 2 31h-19l-11-19zm-2070-7v-16l12 4c6 2 14 10 16 16l4 12h-32v-16zm1760 1v-15h30v30h-30v-15zm540-5c0-5 5-10 10-10 6 0 10 5 10 10 0 6-4 10-10 10-5 0-10-4-10-10zm-350-24v-15l-35 6-35 6v-17c0-9 5-16 10-16 6 0 10-7 10-15v-15h80v11c0 7 7 17 17 24l16 12-6 17-6 16h-51v-14zm228 2-5-13-31 3-32 2v-20h-40v-30h40v-30h40v30h40v10c0 6 7 10 15 10h15v50h-38l-4-12zm58-4c-15-39 2-46 34-14 26 26 25 30-4 30h-24l-6-16zm134 2c0-17-22-26-61-26h-29v-30h150v50h-15c-8 0-15 5-15 10 0 6-7 10-15 10h-15v-14zm-290-7v-10l10 6c6 3 10 8 10 11 0 2-4 4-10 4-5 0-10-5-10-11zm-338-10c2-6 8-10 13-10s11 4 13 10l4 11h-34l4-11zm18-96v-43h32l-5 27-5 28 9 17 9 17-20-2-20-1v-43zm62 35c2-6 10-14 16-16l12-4v32h-32l4-12zm385-34c-8-8 1-24 14-24 5 0 9 7 9 15 0 15-12 20-23 9zm143-24v-21l14 13c14 13 12 28-5 28h-9v-20zm-1993 3c-4-3-7-10-7-15v-8h60v22l-15-6-15-5v9c0 11-13 13-23 3zm1753-12v-19l-12-5-13-5 33-1 32-1v13c0 14-20 37-32 37-4 0-8-9-8-19zm202-11c14-22 24-19 15 5-4 8-11 15-17 15h-10l12-20zm-470-20-12-20 14-6c8-3 23-4 33-1l18 5-29 1-29 1 18 20 18 20h-9c-5 0-15-9-22-20zm-2083-7-14-16 13-4c14-5 16-33 2-33h-10v-40h69l6 11 7 11-20 18-20 18 5 26 5 26h-15c-8 0-21-7-28-17zm288-5-6-23 9-9c12-12 19-5 22 24l3 23-11 4-11 4-6-23zm1575-8v-25l5 13c2 6 2 18 0 25l-5 12v-25zm-1402-50v-50h11c17 0 39 27 39 49v21h10c6 0 10 7 10 15v15h-70v-50zm1914 41 7-11h-31v-28l23-6c34-9 37-8 37 14v19l-21 12-21 11 6-11zm129-18c-13-8-23-20-23-25v-9l20 11 20 11v-8c0-10 20 19 20 30s-12 8-37-10zm-2176-27-6-15 14 6 15 5-6 9c-7 12-11 11-17-5zm2263-6v-20h30v40h-30v-20zm-2440-25v-15h30v30h-30v-15zm1785 5 6-10 10 5c14 9 11 15-7 15h-15l6-10zm420 0 6-10h69v20h-81l6-10zm-2365-20v-10h50v20h-50v-10zm358 3c7-3 16-2 19 1 4 3-2 6-13 5l-19-1 13-5zm1752-23v-30h10c6 0 13 7 16 15l6 15h68v30h-100v-30zm470 20c0-5 5-10 10-10 6 0 10 5 10 10 0 6-4 10-10 10-5 0-10-4-10-10zm-340-9c0-5 8-15 18-22l17-14-12 16-13 16 7 6 6 7h-11c-7 0-12-4-12-9zm210-5v-14l-20-5-20-5v-32l30 27c31 27 38 43 20 43-5 0-10-6-10-14zm-2125-7c-4-6-5-13-2-16 7-7 27 6 27 18s-17 12-25-2zm214-8-26-15v-46h13c8 0 14 4 14 9s7 17 16 25c8 9 14 22 12 29l-3 13-26-15zm111-1c0-5-7-10-15-10-9 0-18-6-21-14s-19-19-36-25l-30-10 7-11c9-15 30-12 56 9 24 18 30 21 49 21h10v50h-10c-5 0-10-4-10-10zm-573-7c-4-3-7-12-7-20v-13h28l5 20 5 20h-12c-7 0-16-3-19-7zm2133-3v-9l15 5c8 4 15 8 15 10s-7 4-15 4-15-4-15-10zm-40-16v-15l-9 5-9 6-11-14-12-14 11-7 11-7 20 18c20 18 26 44 9 44-5 0-10-7-10-16zm198 5-17-10 5-12 5-13 19-1 20-2v25c0 26-6 29-32 13zm215 1-23-9 7-18 7-18 4 18 3 17h15c8 0 14 5 14 10 0 6-1 10-2 9-2 0-13-4-25-9zm-2623-10c0-5 7-10 15-10s15 5 15 10c0 6-7 10-15 10s-15-4-15-10zm527-20-5-20 9-6 9-5v25c0 31-6 34-13 6zm2150 5-19-13 4-14 3-13 27 28 27 27h-12c-7 0-20-7-30-15zm-2181-11-20-14h16c9 0 20 5 23 11 11 17 2 18-19 3zm1744 6c0-5 5-10 11-10h10l-6 10c-3 6-8 10-11 10-2 0-4-4-4-10zm390-6v-15l10 6c6 3 10 10 10 16 0 5-4 9-10 9-5 0-10-7-10-16zm186 1-5-15h9c6 0 10 7 10 15s-2 15-4 15-6-7-10-15zm-2074-7c2-6 10-14 16-16l12-4v32h-32l4-12zm-542-38c0-5 5-10 10-10 6 0 10 5 10 10 0 6-4 10-10 10-5 0-10-4-10-10zM70 960v-30h30v60H70v-30zM2 930l-3-40h21v-40H10c-5 0-10-7-10-15s4-15 9-15h10l3-37 3-38 23 2 22 3v-10c0-11-12-13-48-10l-22 1v-29l43-3c24-2 51-3 59-1l16 3 5 20 5 19-8-5c-5-3-11-1-15 5l-6 9 21 13c11 7 20 18 20 25v13h-24c-14 0-28-4-31-10-3-5-13-10-21-10H50v40h20v40h30v30H51l-3 38-3 37-21 3-20 3-2-41zm232 26-6-15 16-17 17-16 15 6 15 6-3 22-3 23-23 3-22 3-6-15zm1761 4-6-10h32l-6 10c-3 6-8 10-10 10s-7-4-10-10zM365 950l-6-10 10-17 10-18 1 12c0 6 3 18 6 27l6 16h-10c-6 0-14-4-17-10zm1890-21c-4-6-5-13-2-16 7-7 27 6 27 18s-17 12-25-2zm615-59c0-5 5-10 10-10 6 0 10 5 10 10 0 6-4 10-10 10-5 0-10-4-10-10zm100-155v-65h30v130h-30v-65zm-63 8c-12-11-8-23 8-23h15v15c0 16-12 20-23 8zM13 635l5-46 23-20 24-21 3 17 4 18-12 7-13 8 8 12 8 12-21-6-21-7 5 36 4 35H7l6-45zm74-6 6-21 8 13c8 14 3 29-11 29h-8l5-21zm151 15c-8-8 3-44 13-44h9v50h-8c-5 0-11-3-14-6zm182-11c0-6-6-14-12-16l-13-5 13-1 12-1v-50h26l1 20 2 20h-12c-7 0-1 6 13 14l25 13 13-10 12-9v16c0 17-2 18-50 20l-30 1v-12zm2470 2-13-16 11-11 12-12v34h10c6 0 10 5 10 10 0 15-16 12-30-5zM185 590l-7-12 10-10 10-10 7 12 7 12-10 10-10 10-7-12zm175 1c0-5 7-12 16-15 24-9 27-7 10 9-17 17-26 19-26 6zm2485-1-6-10h10c6 0 11 5 11 10 0 6-2 10-4 10-3 0-8-4-11-10zm-105-20c0-5 5-10 11-10h10l-6 10c-3 6-8 10-11 10-2 0-4-4-4-10zM490 555v-15h-70v-22l-28 5-29 6 5-52 5-52 24-23 25-23 14 12c15 12 19 30 7 27-5 0-16 2-25 6l-17 8 19 20 19 21-5 9-5 8h111v80h-50v-15zm-480-6v-10l10 6c6 3 10 8 10 11 0 2-4 4-10 4-5 0-10-5-10-11zm146-58 7-58-27-7c-14-3-26-11-26-16v-10H70v-15c0-8 5-15 10-15h10V262l-10-4-11-3-1-58-2-57h-8c-4 0-9 10-9 23l-1 22-5-16-4-17-20-5-19-5V90h29l-6-35-6-35h53V0h140v10c0 5 10 15 23 21l22 12-19-22-19-21h53v25l8-12 7-12h113l19 14 18 14-55 2-55 1 18 5 17 4v36l55-5 55-4v32l-20 12c-11 7-20 18-20 25v12l14-5 14-5 7 10 6 11h-10c-6 0-11 7-11 15v15h-15c-8 0-15-4-15-10v-10h-40v40h40v30l-22 1-23 1 25 7 25 7 3 32 3 32-26 10c-15 6-31 8-36 4l-9-5v8c0 5 6 15 13 22l12 12-19-7-19-7 6 16 6 16-37-6c-20-3-39-9-42-13s-17-10-32-14l-28-6v10c0 5 6 10 14 10 14 0 26 21 26 46v14h-14c-7 0-19-7-26-15-17-21-30-19-30 5v20h77l13 25c7 14 17 25 22 25 4 0 8 11 8 25v25H180v-10c0-5-5-10-11-10h-11l6 15 5 15h-19l6-59zm192-192 27-1-12-5-13-5v-46c0-26 3-57 6-69l6-23 8 5c5 3 11 1 15-5l6-10h-32l5-8 5-8-21-1c-12-1-24-7-28-12l-6-11-27 13c-15 6-27 15-27 20 0 4-7 7-15 7s-15-4-15-10c0-5-7-10-15-10s-15 5-15 10c0 6-5 10-11 10h-10l6-10 6-10h-21v50h-30v-50h-40v60H90c-5 0-10 7-10 15v15h14c8 0 16-7 20-15 3-8 10-15 16-15 5 0 10 7 10 15v15h13c7 0 19 9 27 20l14 20h36l1-12c1-7 1-16 0-20-2-16 25-7 52 17l27 24 1 33 1 33 5-12 5-13 26-1zM90 79V69l-10 6-11 7 5-26 4-25-13 5c-14 6-26 39-17 48 3 3 14 6 24 6h18V79zm255-19 6-10h-41v10c0 6 6 10 14 10s18-4 21-10zM133 33c-7-2-19-2-25 0l-13 5h50l-12-5zm37 157c0-5 5-9 12-7l12 2 2-12c1-7 2-16 3-20 0-4 6-2 13 5l12 12-20 15c-23 17-34 19-34 5zm145-41c-4-6-5-13-2-16 7-7 27 6 27 18s-17 12-25-2zM10 500c0-5 5-10 10-10 6 0 10 5 10 10 0 6-4 10-10 10-5 0-10-4-10-10zm111-4-14-17 11-11c15-15 24-5 20 23l-3 22-14-17zm355-35-6-9 16-6c25-10 34-7 34 9v15h-19c-11 0-22-4-25-9zM81 451l-14-9 7-18 7-19 15 19c23 32 16 46-15 27zm-56-51c3-5 8-10 11-10 2 0 4 5 4 10 0 6-5 10-11 10H19l6-10zm-15-30c0-5 5-10 10-10 6 0 10 5 10 10 0 6-4 10-10 10-5 0-10-4-10-10zm0-40c0-5 5-10 10-10 6 0 10 5 10 10 0 6-4 10-10 10-5 0-10-4-10-10zm0-41v-10l10 6c6 3 10 8 10 11 0 2-4 4-10 4-5 0-10-5-10-11zm10-44v-15h30v30H20v-15zm498-12c7-3 16-2 19 1 4 3-2 6-13 5l-19-1 13-5zM5 199c-11-17 1-21 15-4l12 15H22c-6 0-14-5-17-11zm676-25 1-19 5 13c3 7 2 16-1 19-3 4-6-2-5-13zM560 56V40h52l-4 13c-3 6-14 13-26 15l-22 3V56z"/></g><g fill="#aeb5bb" transform="matrix(.1 0 0 -.1 0 300)"><path d="m1117 2268-157-82 2-499 3-500 165-82 164-82 31 9c31 10 119 35 455 133 107 31 210 61 228 66l32 10v949h-7c-5 0-80 16-168 35s-200 44-250 55c-49 11-139 31-200 45-60 14-116 25-125 25-8-1-86-38-173-82zm353-12c36-8 110-24 165-35 134-28 277-60 281-64 2-2-45-20-104-40l-107-38-50 10c-28 6-88 15-135 21s-109 15-137 21l-53 10v147l38-9c20-5 66-16 102-23zm-190-572v-596l-12 4-13 5-3 22-3 22-70 31c-38 17-67 33-64 36s33 10 68 17l62 11 3 27c2 15 2 27 0 27s-46-9-98-20-105-20-117-20h-23v178l20-5 20-5v502h-40v210h8c4 0 54-7 112-15s108-15 113-15c4 0 7 11 7 24v24l-69 13-69 12 69 33 69 33v41h30v-596zm710 241v-195h-30v-51l15-5 15-6v-38h-30v-260h30v-70h-10c-5 0-19 4-32 9-26 11-103 34-165 51l-43 11v572l55-7 55-6v50h-24c-13 0-38 3-55 6l-31 7v48l13 4c6 2 55 19 107 39 52 19 103 35 113 35l17 1v-195zm-567 149 37-7v-37h-90v-49l45-7 45-6v-131l-46 7c-26 3-55 6-65 6h-19v230h28c15 0 44-3 65-6zm200-29 67-7v-39l-82 7c-96 8-98 8-98 36v20l23-5c12-3 52-9 90-12zm38-95h29v-115l-90 3-90 3v122l61-7c34-3 75-6 90-6zm-201-230v-60h-130v120h130v-60zm230-2v-63l-87 5-88 5-3 58-3 57h181v-62zm0-188v-71l-52 7c-29 3-70 10-91 15l-38 10 3 47 3 47 45 6c25 3 64 7 88 7l42 2v-70zm-230 6c0-25-3-47-7-49-5-3-34-8-65-12l-58-7v100l13 5c6 3 36 6 65 6l52 1v-44zm230-150v-14l-47-7c-27-4-104-18-172-31-150-29-141-29-141-4 0 11 2 20 5 20 11 0 202 31 240 39 22 5 57 9 78 10l37 1v-14zm107-82c46-14 83-27 81-29-5-5-525-145-537-145h-11v125l178 36c97 20 183 37 191 38 7 0 51-11 98-25zm-585 728-12-8 2-250 3-249 23-3 22-3v521h-12c-7 0-19-4-26-8zm-8-586c-3-8-4-29-2-48l3-33 23-3 22-3v101h-41l-5-14zm188-568 3-23 18-3 17-3v51h-41l3-22zm1040 0 3-23 18-3 17-3v51h-41l3-22zM551 863c-42-52-40-102 5-146l27-27h69l29 29 29 29v80l-26 31-26 31h-87l-20-27zm97-25 12-12v-76l-25-12-25-11-20 18-20 18v24c0 13 5 33 10 44l11 19h22c13 0 28-5 35-12zm143 3c-7-4-23-6-37-3l-24 4V690h39l3 48 3 47 23 10 22 10v17c0 21-12 29-29 19zm116 2c-4-3-23-6-42-5l-35 1V690h50v110h40V690h40v87l18 16 19 17 6-7c4-3 7-30 7-60v-53h40v139l-19 11-20 10-26-10-26-10-19 10c-22 12-25 12-33 3zm208 0c-11-3-24-9-29-13l-9-9 7-17 7-17 11 11c7 7 22 12 35 12h23v-28l-20 5-20 5-25-16-25-16v-48l13-10 12-10 63 1h63l-7 46c-4 25-11 56-15 69l-9 22-25 10c-15 6-27 9-28 9-1-1-11-3-22-6zm45-97v-14l-17-6-16-7-10 10-9 9 6 11c4 6 16 11 27 11h19v-14zm147 97c-4-3-23-6-42-5l-35 1V689l22 3 23 3-3 38-4 39 18 19 17 19 8-6 9-5V690h50v120l-20 20c-21 21-32 24-43 13zm290 0c-4-3-23-6-42-5l-36 1 3-102 3-102 23-3 22-3v68l30-5 31-4 19 17 20 18v86l-26 20c-28 22-37 25-47 14zm23-48 12-15-6-26-7-25-22 3-22 3-3 23-4 23 12 15c16 18 24 18 40-1zm114 45c-28-11-54-48-54-76v-21l21-27 20-26h76l16 18c9 10 19 32 23 49l6 30-24 26c-27 30-55 39-84 27zm54-79-3-26h-50l-3 24-4 25 18 13 17 13 14-12 14-11-3-26zm192 79-15-9-22 6-23 5V690h39l3 53 3 52h40l3-52 3-53h39v98l13 11 14 11 6-7c4-3 7-30 7-60v-53h50v130l-25 16-25 16-23-15-23-15-19 14c-22 16-25 17-45 4zm220-3c-13-7-30-24-37-37l-13-25 5-25c3-14 15-33 27-42l20-18h65l16 18c10 10 17 22 17 25 0 11-29 8-50-5l-20-13-17 18-17 17h114v42l-29 29c-33 32-44 35-81 16zm58-44 4-13h-61l6 16 6 15 20-3c11-2 22-9 25-15zm-868-28v-76l23 3 22 3v140l-22 3-23 3v-76zm930-2v-74l23 3 22 3 3 49 3 48 20 5 19 5v35l-45 1h-45v-75zm110 2v-75h40v150h-40v-75z"/></g><g fill="#dda45a" transform="matrix(.1 0 0 -.1 0 300)"><path d="m1123 2267-163-82v-993l162-82 163-82 40 9c22 6 190 54 372 107 183 53 335 96 338 96s5 212 5 470v471l-12 3c-15 5-65 16-363 82-115 25-248 55-294 65-47 11-85 19-85 18-1 0-74-37-163-82zm157-576c1-326-1-595-4-598-9-9-31 12-31 31v19l-74 32-74 33 19 5c10 3 45 11 77 18l57 12v37h-19c-10 0-63-9-116-20s-101-20-106-20h-9v190l23-3 22-2v490l-22-1-23-1v220l68-7c37-3 76-8 87-10s37-6 58-10l37-7v20c0 25-8 30-67 37-26 3-54 8-62 10l-14 5 72 34 72 35-7 11-7 12 18 13c10 8 20 12 22 11 1-2 3-270 3-596zm190 569c52-12 133-29 180-39 47-11 123-27 170-36s92-19 100-22l15-5-110-40-110-39-115 16c-63 9-150 22-192 28l-78 11v156l23-5c12-2 65-14 117-25zm530-334v-204l-20 5-20 5v-52h40v-58l-20 5-20 5v-254l20-5 20-5v-77l-62 18c-35 10-96 29-136 42l-72 23 2 286 3 285 10-2c6 0 30-3 55-4l45-4 3 18 3 17-13 4c-7 3-35 7-61 11l-48 6 3 26 3 26 120 42c66 23 126 43 133 44l12 1v-204zm-577 149 47-7v-51l-45 6-45 7v-48l45-6 45-7v-129h-47c-27 0-58 3-70 6l-23 6v240l23-5c12-3 43-9 70-12zm198-26 69-12v-48l-17 5c-10 2-51 8-90 11l-73 7v48h21c11 0 51-5 90-11zm27-95 42-5v-119h-44c-24 0-64 3-90 6l-46 7v125l48-5c26-2 66-6 90-9zm-180-231 3-63h-48c-26 0-58-3-70-6l-23-6v143l68-3 67-3 3-62zm222-3v-70h-22c-13 0-53 3-90 7l-68 6v127h180v-70zm0-191v-71l-45 6c-25 3-65 9-90 12l-45 6v107l33 4c17 2 58 5 90 5l57 2v-71zm-225 6v-50l-67-11-68-11v116l48 4c26 2 56 3 67 3l20-1v-50zm225-144v-18l-57-12c-149-30-266-51-284-51h-19v38l28 6c15 2 56 10 92 16s97 17 135 24c39 8 78 14 88 15l17 1v-19zm118-87c46-14 82-27 81-29-2-2-56-17-119-33-283-75-425-114-432-118l-8-5v138l173 36c94 19 183 35 196 36 14 1 63-11 109-25zm-591 724-17-13 2-245 3-245h40l3 249 2 250-8 8-8 8-17-12zm1-576-18-3v-77l16-6c9-3 20-4 25 0 10 6 11 52 1 74l-7 16-17-4zm179-559c-4-3-7-12-7-20v-13h40v40h-13c-8 0-17-3-20-7zm1033-12v-21h41l-3 17-3 18-18 3-17 3v-20zM556 864l-26-27v-89l29-29 29-29h22c11 0 34 7 49 15l28 14 13 30 12 31-6 34-7 35-26 21-26 20h-64l-27-26zm94-24 20-20v-23c0-12-7-33-16-45l-15-22h-23c-12 0-27 5-34 12l-12 12v35c0 40 8 55 30 64 25 9 29 8 50-13zm82-72 3-73h30l3 48 3 48 25 9 24 10v30h-13c-7 0-18-5-25-12l-12-12v24h-41l3-72zm108-3v-75h30v98l15 12 15 12 15-12 15-12v-98h30v98l15 12 16 13 9-9c5-5 10-31 12-59l3-50 18-3 17-3v127l-12 12c-7 7-21 12-33 12s-26-5-33-12l-12-12-12 12c-7 7-21 12-33 12s-26-5-33-12l-12-12v24h-30v-75zm250 60-12-15 8-1c5-1 23 0 40 1l31 1 7-17 6-16-21 5-21 6-23-9-23-9-7-22-7-21 21-21 21-21 28 10 28 11 16-11c26-16 29-5 20 63l-9 63-14 9c-8 5-28 9-45 9h-32l-12-15zm73-80c-1-5-8-14-17-20l-15-10-12 12-11 11 7 12 7 11 21-3 22-3-2-10zm75 88c-2-5-3-37-3-73l2-65 16-3 16-3 3 52 3 52 18 11 18 11 9-15 10-15v-96l18 3 17 3 3 46 3 45-10 27-11 27h-56l-12-12-12-12v24h-14c-8 0-16-3-18-7zm154-65 3-73 18-3 17-3v151h-41l3-72zm138-28V640h37l-5 31-4 30 35-6 35-7 21 21 21 21v70l-20 20-20 20h-23c-13 0-28-5-35-12l-12-12v24h-30V740zm90 56 12-15-4-23-3-23-21-3-21-3-13 16-13 16 11 24 12 25h14c7 0 19-7 26-14zm92 28-22-15v-78l16-15c8-9 27-19 41-22l25-7 26 20 27 20 3 36 3 36-20 20-21 21h-56l-22-16zm62-20 16-6v-57l-20-11-19-10-16 24-16 25 11 20c11 22 19 25 44 15zm146-40v-75l18 3 17 3 3 47 3 46 14 12 14 12 11-7 10-6V689l18 3 17 3 3 52 3 51 15 6c9 3 20 4 25 0l9-5V689l18 3 17 3 3 46 3 45-10 27-11 27h-28c-15 0-33-5-39-11l-11-11-6 11-7 11h-55l-12-12-12-12v24h-30v-76zm260 56-20-20v-69l26-20 27-21h21c12 0 31 6 42 14l19 15-11 11-12 12-19-13-20-12-17 6-16 6v31h100v47l-18 16-19 17h-63l-20-20zm80-25 12-15h-72v8c0 25 41 30 60 7zm70-30v-75h30v90l25 16 25 16v28h-13c-7 0-18-5-25-12l-12-12v24h-30v-75zm100-1v-75l18 3 17 3 3 73 3 72h-41v-76z"/></g><g fill="#6f7882" transform="matrix(.1 0 0 -.1 0 300)"><path d="m1123 2267-163-82v-993l162-82 163-82 40 9c22 6 190 54 372 107 183 53 335 96 338 96s5 212 5 470v471l-12 3c-15 5-65 16-363 82-115 25-248 55-294 65-47 11-85 19-85 18-1 0-74-37-163-82zm157-576c1-326-1-595-3-597s-55 20-118 50l-113 53 19 6c11 3 57 13 103 23l82 17v37h-19c-10 0-63-9-116-20s-101-20-105-20h-8l-1 446-1 447 67-7c38-3 77-8 88-10s37-6 58-10l39-7-4 22-3 23-30 7c-16 4-56 10-87 14-32 3-58 10-58 13 0 7 202 112 207 108 2-1 3-269 3-595zm190 569c52-12 133-29 180-39 47-11 123-27 170-36s92-19 100-22l15-5-110-40-110-39-115 16c-63 9-150 22-192 28l-78 11v156l23-5c12-2 65-14 117-25zm530-549v-420l-62 18c-35 10-96 29-136 42l-72 23 2 286 3 285 10-2c6 0 30-3 55-4l45-4 3 18 3 17-13 4c-7 3-35 7-61 11l-48 6 3 26 3 26 120 42c66 23 126 43 133 44l12 1v-419zm-577 364 47-7v-51l-45 6-45 7v-48l45-6 45-7v-129h-47c-27 0-58 3-70 6l-23 6v240l23-5c12-3 43-9 70-12zm198-26 69-12v-48l-17 5c-10 2-51 8-90 11l-73 7v48h21c11 0 51-5 90-11zm27-95 42-5v-119h-44c-24 0-64 3-90 6l-46 7v125l48-5c26-2 66-6 90-9zm-180-231 3-63h-48c-26 0-58-3-70-6l-23-6v143l68-3 67-3 3-62zm222-3v-70h-22c-13 0-53 3-90 7l-68 6v127h180v-70zm0-191v-71l-45 6c-25 3-65 9-90 12l-45 6v107l33 4c17 2 58 5 90 5l57 2v-71zm-225 6v-50l-67-11-68-11v116l48 4c26 2 56 3 67 3l20-1v-50zm63-101c-9-8-190-36-196-29-10 10 5 15 64 24 71 10 139 13 132 5zm162-43v-18l-57-12c-149-30-266-51-284-51h-19v38l28 6c15 2 56 10 92 16s97 17 135 24c39 8 78 14 88 15l17 1v-19zm137-93 104-31-8-7c-4-4-132-42-283-84s-283-79-292-82l-18-5v168l173 36c94 19 183 35 197 36 13 1 71-13 127-31zm-430-405c-4-3-7-12-7-20v-13h40v40h-13c-8 0-17-3-20-7zm1033-12v-21h41l-3 17-3 18-18 3-17 3v-20zM556 864l-26-27v-89l29-29 29-29h22c11 0 34 7 49 15l28 14 13 30 12 31-6 34-7 35-26 21-26 20h-64l-27-26zm94-24 20-20v-23c0-12-7-33-16-45l-15-22h-23c-12 0-27 5-34 12l-12 12v35c0 40 8 55 30 64 25 9 29 8 50-13zm82-72 3-73h30l3 48 3 48 25 9 24 10v30h-13c-7 0-18-5-25-12l-12-12v24h-41l3-72zm108-3v-75h30v98l15 12 15 12 15-12 15-12v-98h30v98l15 12 16 13 9-9c5-5 10-31 12-59l3-50 18-3 17-3v127l-12 12c-7 7-21 12-33 12s-26-5-33-12l-12-12-12 12c-7 7-21 12-33 12s-26-5-33-12l-12-12v24h-30v-75zm250 60-12-15 8-1c5-1 23 0 40 1l31 1 7-17 6-16-21 5-21 6-23-9-23-9-7-22-7-21 21-21 21-21 28 10 28 11 16-11c26-16 29-5 20 63l-9 63-14 9c-8 5-28 9-45 9h-32l-12-15zm73-80c-1-5-8-14-17-20l-15-10-12 12-11 11 7 12 7 11 21-3 22-3-2-10zm75 88c-2-5-3-37-3-73l2-65 16-3 16-3 3 52 3 52 18 11 18 11 9-15 10-15v-96l18 3 17 3 3 46 3 45-10 27-11 27h-56l-12-12-12-12v24h-14c-8 0-16-3-18-7zm154-65 3-73 18-3 17-3v151h-41l3-72zm138-28V640h37l-5 31-4 30 35-6 35-7 21 21 21 21v70l-20 20-20 20h-23c-13 0-28-5-35-12l-12-12v24h-30V740zm90 56 12-15-4-23-3-23-21-3-21-3-13 16-13 16 11 24 12 25h14c7 0 19-7 26-14zm92 28-22-15v-78l16-15c8-9 27-19 41-22l25-7 26 20 27 20 3 36 3 36-20 20-21 21h-56l-22-16zm62-20 16-6v-57l-20-11-19-10-16 24-16 25 11 20c11 22 19 25 44 15zm146-40v-75l18 3 17 3 3 47 3 46 14 12 14 12 11-7 10-6V689l18 3 17 3 3 52 3 51 15 6c9 3 20 4 25 0l9-5V689l18 3 17 3 3 46 3 45-10 27-11 27h-28c-15 0-33-5-39-11l-11-11-6 11-7 11h-55l-12-12-12-12v24h-30v-76zm260 56-20-20v-69l26-20 27-21h21c12 0 31 6 42 14l19 15-11 11-12 12-19-13-20-12-17 6-16 6v31h100v47l-18 16-19 17h-63l-20-20zm80-25 12-15h-72v8c0 25 41 30 60 7zm70-30v-75h30v90l25 16 25 16v28h-13c-7 0-18-5-25-12l-12-12v24h-30v-75zm100-1v-75l18 3 17 3 3 73 3 72h-41v-76z"/></g><g fill="#2a3e53" transform="matrix(.1 0 0 -.1 0 300)"><path d="m1128 2264-168-84v-985l165-83 166-82 157 46c268 78 464 135 527 153l60 16 3 467 2 466-52 12c-29 6-80 17-113 25-182 39-571 127-575 130-3 2-80-35-172-81zm162-579c0-333-2-605-4-605s-59 27-127 59l-123 59 40 10c21 6 67 16 102 23l62 12v37l-27-5c-16-3-64-12-108-20s-86-15-92-15h-13v900h18c9 0 35-4 57-9s68-12 103-16l62-7v42l-32 1c-18 0-62 6-98 13l-65 13 110 56c61 31 116 56 123 56l12 1v-605zm148 586c48-11 123-27 167-37 44-9 105-22 135-29s88-19 128-25c39-7 72-16 72-19 0-4-50-24-110-45l-111-39-62 7c-34 3-107 13-162 21-55 9-115 18-132 21l-33 5v159h11c6 0 49-9 97-19zm562-561v-420h-7c-5 0-64 18-133 39l-125 39-3 291-2 291 55-6 55-7v31l-16 6c-9 3-33 6-55 6h-39v65l123 42c67 23 128 42 135 43h12v-420zm-542 364 12-3v-53l-45 4-45 3v-45h90v-140h-140v250l58-6c31-3 63-7 70-10zm220-30 22-4v-50l-62 6c-35 4-79 9-98 13l-35 7-3 18-4 19 11 6 11 7 67-9c38-5 78-11 91-13zm0-91 22-5v-118h-165l-13 9-14 8-5 63-5 63 79-7c43-4 88-10 101-13zm-208-228v-65h-17c-10 0-42-3-70-6l-53-7v143h140v-65zm230-3c0-38-2-71-5-73-5-5-177 10-184 16-7 8-13 95-8 110l6 15h191v-68zm-2-181c2-35 1-69-2-76l-4-12-69 9c-37 4-78 11-90 13l-23 5v119l78 4c42 2 84 3 92 2h15l3-64zm-228-6v-55l-22-4c-13-3-44-7-70-10l-48-6v119l38 4c20 2 52 4 70 5l32 2v-55zm70-105c-29-9-161-30-190-30h-20v29l43 4c23 2 76 4 117 4l75 1-25-8zm160-40v-20l-22-4c-13-3-45-9-73-15-27-6-90-17-140-26-49-9-100-19-112-22l-23-5v58l83 13c45 6 116 18 157 25 41 8 87 14 103 15l27 1v-20zm230-120 25-8-15-5c-8-3-107-31-220-62s-242-67-286-81c-45-13-87-24-93-24h-11v170l23 5c54 12 238 49 297 59l65 12 95-29c52-16 106-32 120-37zM565 868l-26-23-5-35-6-35 11-27 10-27 32-16 31-17 30 13 30 12 19 31c23 38 23 49 4 91l-16 32-25 12c-14 6-33 11-44 11h-19l-26-22zm89-24 16-15v-69l-20-20c-26-26-36-25-65 5l-25 24v51l20 20 20 20h19c11 0 27-7 35-16zm746 31v-15h30v30h-30v-15zm1032 3c2-6 10-14 16-16l12-4v32h-32l4-12zM747 834c-4-4-7-36-7-71v-63h20v79l25 19c14 11 25 25 25 31v12l-18-10-19-10-10 10-9 9-7-6zm143-4-15-10-17 6-18 5V700h29l3 46 3 47 18 11 18 11 9-15c5-8 10-34 10-57v-43h30v43c0 23 4 48 9 55l8 14 19-4 19-3 3-53 3-52h29v109l-16 15c-19 20-35 20-59 2l-19-14-14 14c-16 16-31 17-52 4zm218 3-18-4v-29l25 12 24 11 16-13c8-7 15-16 15-21v-9h-66l-12-12c-7-7-12-22-12-35v-22l21-12 22-11 24 11 25 12 13-11c19-15 22-4 18 53l-5 52-20 18c-20 17-36 19-70 10zm60-90-3-18-24-3-23-4-10 10-10 10 6 11 7 11h60l-3-17zm122 87-15-10-17 6-18 5V700h30v88l15 12 15 12 15-6 15-5V700h30v116l-12 12c-14 14-38 15-58 2zm110-60v-70h30v128l-15 6-15 5v-69zm181 61-13-9-19 5-19 5V640h30v72l13-5c6-3 20-8 29-12l17-7 26 26 25 25v52l-25 24c-25 26-41 30-64 16zm50-42 11-22-11-23-11-24h-18c-24 0-42 19-42 45s18 45 42 45h17l12-21zm80 25-21-27v-48l26-25 25-26 27 6c15 4 35 16 45 28l17 20v49l-25 24-24 25h-50l-20-26zm79-20 13-15-9-27-9-27h-50l-9 27-9 27 13 15c7 9 20 16 30 16s23-7 30-16zm182 30-22-15v10c0 6-7 11-15 11h-15V700h30v76l14 19 13 18 17-6 16-6V700h30v76l14 19 13 18 17-6 16-6V700h31l-3 61-3 62-17 10-17 11-26-14-25-14-12 12c-16 16-29 15-56-4zm231 6c-63-26-51-119 18-135l25-6 25 21 24 20-38-6-37-6-15 12-15 12 6 9 5 9h99v39l-26 20c-29 23-38 24-71 11zm53-24 19-14-7-7c-3-3-23-5-44-3l-38 3 18 18c21 21 27 21 52 3zm120 18-16-15v10c0 6-7 11-15 11h-15V700h29l3 48 3 47 23 10c23 10 28 20 13 30l-9 5-16-16zm54-59v-65h30v130h-30v-65z"/></g></g></svg>